<svg width="360" height="765" viewBox="0 0 360 765" fill="none" xmlns="http://www.w3.org/2000/svg">
<path d="M180 405C80.5887 405 3.33195e-06 485.589 2.14648e-06 585C9.61011e-07 684.411 80.5887 765 180 765C279.411 765 360 684.411 360 585C360 485.589 279.411 405 180 405ZM180 664.615C136.03 664.615 100.385 628.97 100.386 585C100.386 541.03 136.03 505.385 180 505.386C223.97 505.386 259.615 541.03 259.615 585C259.615 628.97 223.97 664.615 180 664.615Z" fill="#F1EAE2"/>
<circle cx="180" cy="180" r="180" transform="matrix(1.19249e-08 -1 -1 -1.19249e-08 360 360)" fill="#F1EAE2"/>
</svg>
