<svg width="592" height="613" viewBox="0 0 592 613" fill="none" xmlns="http://www.w3.org/2000/svg">
<g clip-path="url(#clip0_2822_6892)">
<path d="M168.888 520.133C162.087 524.529 154.149 526.843 146.051 526.789C122.898 526.789 105.738 509.519 105.738 487.754C105.738 465.989 123.087 448.734 146.272 448.734C169.456 448.734 186.584 465.989 186.584 487.754C186.632 495.453 184.308 502.981 179.929 509.314L187.657 515.859L177.153 527.546M153.874 506.948L143.48 498.053L153.984 486.255L164.173 495.482C165.067 493.082 165.505 490.536 165.466 487.974C165.466 477.029 157.58 467.471 146.051 467.471C134.522 467.471 127.125 476.934 127.125 487.974C127.125 499.015 134.79 508.383 146.287 508.383C148.886 508.389 151.464 507.913 153.889 506.979" fill="#454C52"/>
<path d="M190.551 492.376V450.234H211.685V491.951C211.685 502.77 217.142 507.912 225.517 507.912C233.891 507.912 239.349 502.991 239.349 492.487V450.234H260.467V491.84C260.467 516.066 246.635 526.68 225.296 526.68C203.957 526.68 190.598 515.861 190.598 492.376" fill="#454C52"/>
<path d="M288.261 450.234H267.348V525.292H288.261V450.234Z" fill="#454C52"/>
<path d="M293.516 487.754C293.516 465.878 310.344 448.734 333.087 448.734C348.417 448.734 357.959 455.374 364.63 464.601L349.411 476.398C345.121 471.036 340.074 467.708 332.898 467.708C322.394 467.708 314.997 476.603 314.997 487.754C314.997 498.904 322.394 507.815 332.898 507.815C340.784 507.815 345.326 504.172 349.836 498.699L365.482 509.85C358.416 519.597 348.874 526.789 332.251 526.789C310.801 526.789 293.547 510.386 293.547 487.754" fill="#454C52"/>
<path d="M368.473 450.234H389.26V480.674L415.11 450.234H439.761L411.356 482.503L440.739 525.292H415.756L396.878 497.408L389.26 505.877V525.292H368.473" fill="#454C52"/>
<path d="M485.57 518.966C479.221 523.949 471.371 526.634 463.3 526.584C447.97 526.584 436.488 518.524 436.488 504.708C436.488 495.371 441.519 488.29 451.708 483.685C448.542 479.476 446.811 474.362 446.771 469.096C446.771 458.166 455.667 448.734 470.429 448.734C484.04 448.734 492.73 457.093 492.73 468.244C492.73 477.47 486.832 483.685 478.031 487.754L486.406 495.908C489.003 492.093 491.363 488.121 493.472 484.016L507.209 490.876C504.237 496.395 500.913 501.715 497.257 506.806L507.335 516.774L493.267 526.789M474.94 508.02L462.606 495.482C458.853 497.737 457.244 500.623 457.244 503.841C457.244 508.241 460.903 511.238 466.044 511.238C469.255 511.081 472.348 509.984 474.94 508.083M476.123 469.064C476.186 468.278 476.081 467.487 475.816 466.744C475.551 466.001 475.13 465.323 474.583 464.755C474.036 464.187 473.374 463.741 472.641 463.448C471.909 463.155 471.123 463.021 470.334 463.055C466.802 463.055 464.325 465.736 464.325 469.916C464.325 472.802 465.619 475.278 468.189 478.496C473.552 476.13 476.075 473.244 476.075 469.033" fill="#454C52"/>
<path d="M206.223 536.461H238.381C257.307 536.461 269.593 546.208 269.593 563.052C269.593 580.732 255.967 590.069 237.309 590.069H227.026V611.519H206.223M236.883 573.777C244.28 573.777 248.791 569.913 248.791 563.793C248.791 557.359 244.28 553.936 236.788 553.936H227.026V573.777H236.883Z" fill="#454C52"/>
<path d="M272.453 536.461H307.94C319.406 536.461 327.355 539.458 332.386 544.505C336.786 548.889 339.041 554.693 339.041 562.295C339.041 573.777 332.922 581.379 323.601 585.353L341.502 611.519H317.513L302.419 588.823H293.303V611.566H272.453M306.977 572.531C314.059 572.531 318.128 569.093 318.128 563.415C318.128 557.737 313.838 554.52 306.867 554.52H293.256V572.531H306.977Z" fill="#454C52"/>
<path d="M341.133 573.98C341.133 552.436 358.482 534.945 381.65 534.945C404.819 534.945 421.979 552.215 421.979 573.98C421.979 595.745 404.63 613.015 381.445 613.015C358.261 613.015 341.133 595.666 341.133 573.98ZM400.734 573.98C400.734 563.161 392.848 553.714 381.445 553.714C370.042 553.714 362.519 562.94 362.519 573.98C362.519 585.021 370.405 594.247 381.713 594.247C393.022 594.247 400.797 585.021 400.797 573.98" fill="#454C52"/>
<path d="M153.359 96.7422H227.565C251.554 96.7422 268.146 103.051 278.682 113.555C287.877 122.75 292.576 134.847 292.576 150.76C292.576 174.749 279.801 190.679 260.292 198.959L297.687 253.655H247.517L215.973 206.119H196.858V253.655H153.359M225.547 172.052C240.341 172.052 248.873 164.876 248.873 153C248.873 140.666 239.899 134.389 225.326 134.389H196.858V172.052H225.547Z" fill="#454C52"/>
<path d="M300.195 184.827V96.7422H344.356V183.944C344.356 206.592 355.791 217.349 373.282 217.349C390.772 217.349 402.207 207.034 402.207 185.064V96.7422H446.368V183.723C446.368 234.382 417.442 256.573 372.824 256.573C328.206 256.573 300.195 233.956 300.195 184.827Z" fill="#454C52"/>
<path d="M0 347.626C0 301.888 35.2025 266.023 82.7227 266.023C114.771 266.023 134.769 279.934 148.633 299.144L116.79 323.858C107.831 312.66 97.2958 305.705 82.2811 305.705C60.3111 305.705 44.839 324.316 44.839 347.626C44.839 370.937 60.3111 389.548 82.2811 389.548C98.6364 389.548 108.273 381.93 117.689 370.495L150.431 393.806C135.621 414.215 115.733 429.229 80.9248 429.229C36.0857 429.229 0 394.926 0 347.626Z" fill="#454C52"/>
<path d="M153.336 269.156H196.819V327.89H252.651V269.156H296.133V426.085H252.651V366.452H196.819V426.085H153.336" fill="#454C52"/>
<path d="M309.34 269.156H435.561V306.141H352.381V329.909H427.707V364.212H352.381V389.1H436.681V426.085H309.34" fill="#454C52"/>
<path d="M448.793 269.156H574.336V307.277H492.276V333.947H566.482V370.048H492.276V426.085H448.793" fill="#454C52"/>
<path d="M502.525 174.577C502.525 178.866 501.253 183.059 498.87 186.625C496.487 190.191 493.1 192.971 489.137 194.612C485.175 196.253 480.814 196.683 476.608 195.846C472.401 195.009 468.537 192.944 465.504 189.911C462.471 186.878 460.406 183.014 459.569 178.808C458.732 174.601 459.162 170.24 460.803 166.278C462.444 162.315 465.224 158.928 468.79 156.545C472.357 154.162 476.549 152.891 480.838 152.891C486.59 152.891 492.106 155.175 496.173 159.242C500.24 163.309 502.525 168.825 502.525 174.577Z" fill="#454C52"/>
<path d="M375.161 149.615C377.495 152.454 379.892 151.429 378.772 148.133C376.769 142.313 374.782 132.471 378.504 117.457C387.021 83.1846 406.2 58.7226 389.134 20.4604C385.961 13.7469 382.063 7.40053 377.511 1.53434C375.24 -1.32034 372.984 -0.0428508 374.435 3.23767C377.385 10.0668 379.403 20.287 375.35 35.0651C366.187 69.0216 349.563 92.5215 364.893 132.061C367.502 138.337 370.957 144.227 375.161 149.568" fill="#FF8B3C"/>
<path d="M511.782 421.531H505.805V427.43H511.782V421.531Z" fill="#454C52"/>
<path d="M516.446 417.59C516.427 416.226 516.683 414.872 517.199 413.609C517.714 412.347 518.48 411.201 519.449 410.241C520.417 409.281 521.57 408.526 522.837 408.022C524.105 407.518 525.461 407.274 526.824 407.306C528.317 407.24 529.804 407.519 531.172 408.121C532.54 408.723 533.75 409.631 534.71 410.776L531.429 414.088C530.843 413.452 530.127 412.948 529.33 412.611C528.533 412.273 527.673 412.11 526.808 412.132C525.474 412.32 524.254 412.99 523.381 414.017C522.507 415.044 522.041 416.355 522.07 417.703C522.1 419.05 522.622 420.34 523.539 421.328C524.456 422.316 525.703 422.933 527.045 423.062C527.904 423.037 528.748 422.836 529.526 422.473C530.305 422.109 531.001 421.591 531.571 420.949L534.852 424.277C533.876 425.462 532.639 426.404 531.238 427.031C529.837 427.657 528.31 427.951 526.777 427.889C525.417 427.914 524.067 427.665 522.805 427.157C521.544 426.648 520.399 425.891 519.437 424.929C518.476 423.968 517.718 422.822 517.209 421.561C516.701 420.3 516.452 418.949 516.478 417.59" fill="#454C52"/>
<path d="M536.597 417.588C536.518 415.456 537.079 413.35 538.207 411.54C539.334 409.729 540.977 408.298 542.925 407.428C544.872 406.559 547.035 406.292 549.136 406.662C551.236 407.031 553.178 408.021 554.712 409.502C556.246 410.984 557.302 412.891 557.744 414.977C558.186 417.064 557.994 419.235 557.193 421.211C556.391 423.188 555.017 424.879 553.247 426.069C551.477 427.258 549.392 427.891 547.259 427.886C545.878 427.926 544.504 427.69 543.216 427.191C541.928 426.692 540.753 425.941 539.76 424.982C538.766 424.022 537.975 422.874 537.432 421.604C536.889 420.334 536.605 418.969 536.597 417.588ZM552.369 417.588C552.396 416.886 552.283 416.186 552.035 415.529C551.787 414.872 551.411 414.272 550.927 413.763C550.443 413.254 549.862 412.848 549.219 412.567C548.575 412.287 547.882 412.138 547.18 412.13C546.475 412.122 545.777 412.26 545.128 412.536C544.48 412.811 543.895 413.218 543.412 413.731C542.929 414.244 542.557 414.851 542.321 415.515C542.084 416.179 541.988 416.885 542.038 417.588C542.011 418.291 542.125 418.993 542.373 419.652C542.622 420.311 543 420.913 543.485 421.423C543.97 421.933 544.553 422.341 545.198 422.622C545.844 422.903 546.539 423.052 547.243 423.06C547.948 423.067 548.646 422.927 549.294 422.649C549.942 422.372 550.525 421.963 551.007 421.449C551.489 420.934 551.858 420.326 552.093 419.661C552.327 418.996 552.421 418.29 552.369 417.588Z" fill="#454C52"/>
<path d="M560.934 407.669H566.548V410.476C567.187 409.515 568.051 408.725 569.066 408.176C570.08 407.626 571.214 407.333 572.368 407.322C573.503 407.257 574.633 407.52 575.623 408.08C576.613 408.639 577.421 409.471 577.951 410.476C578.716 409.487 579.699 408.688 580.823 408.141C581.948 407.594 583.183 407.313 584.434 407.322C588.613 407.322 591.121 409.83 591.121 414.577V427.463H585.506V416.422C585.506 413.757 584.323 412.401 582.225 412.401C580.128 412.401 578.835 413.757 578.835 416.422V427.463H573.22V416.422C573.22 413.757 572.037 412.401 569.939 412.401C567.842 412.401 566.548 413.757 566.548 416.422V427.463H560.934" fill="#454C52"/>
</g>
<defs>
<clipPath id="clip0_2822_6892">
<rect width="591.125" height="613" fill="white"/>
</clipPath>
</defs>
</svg>
