<svg width="180" height="180" viewBox="0 0 180 180" fill="none" xmlns="http://www.w3.org/2000/svg">
<path d="M7.86805e-06 90C6.3119e-06 107.8 5.27842 125.201 15.1677 140.001C25.0571 154.802 39.1131 166.337 55.5585 173.149C72.0038 179.961 90.0998 181.743 107.558 178.271C125.016 174.798 141.053 166.226 153.64 153.64C166.226 141.053 174.798 125.016 178.271 107.558C181.743 90.0998 179.961 72.0038 173.149 55.5585C166.337 39.1131 154.802 25.0571 140.001 15.1677C125.201 5.27841 107.8 -6.3119e-06 90 -7.86805e-06L90 14.4C104.952 14.4 119.569 18.8339 132.001 27.1409C144.433 35.4479 154.123 47.255 159.845 61.0691C165.567 74.8832 167.064 90.0839 164.147 104.749C161.23 119.414 154.03 132.884 143.457 143.457C132.884 154.03 119.414 161.23 104.749 164.147C90.0839 167.064 74.8832 165.567 61.0691 159.845C47.255 154.123 35.4479 144.433 27.1409 132.001C18.8339 119.569 14.4 104.952 14.4 90L7.86805e-06 90Z" fill="#FF8B3C"/>
<path d="M88.4722 103.661V92.0069L82.4348 85.9699C81.8247 85.3597 81.8247 84.3707 82.4348 83.7609C83.0446 83.1507 84.0336 83.1507 84.6438 83.7609L90.0346 89.1516L95.4253 83.7609C96.0351 83.1507 97.0241 83.1507 97.6343 83.7609C98.2441 84.3707 98.2441 85.3597 97.6343 85.9699L91.5961 92.0077V103.661H100.246C100.57 101.519 101.603 99.515 103.19 98.0118C105.056 96.2432 106.524 94.158 107.554 91.8137C108.621 89.3857 109.162 86.7998 109.162 84.1275C109.162 79.0589 107.199 74.2827 103.636 70.6788C100.075 67.0781 95.3269 65.0619 90.2666 65.0012C90.1889 65.0004 90.1127 65 90.0354 65C79.6311 65 71.0725 73.3956 70.9087 83.8204C70.8662 86.5364 71.3812 89.1683 72.4404 91.6439C73.4616 94.0314 74.9355 96.1551 76.8207 97.9566C78.4362 99.4999 79.4883 101.523 79.82 103.661H88.4722Z" fill="#454C52"/>
<path d="M79.9297 106.781V109.619C79.9297 113.687 83.2388 116.996 87.3065 116.996H92.7555C96.8232 116.996 100.133 113.687 100.133 109.619V106.781H79.9297Z" fill="#454C52"/>
</svg>
