<svg width="180" height="180" viewBox="0 0 180 180" fill="none" xmlns="http://www.w3.org/2000/svg">
<path d="M180 90C180 72.1997 174.722 54.7991 164.832 39.9987C154.943 25.1983 140.887 13.6627 124.442 6.85084C107.996 0.038955 89.9002 -1.74335 72.4419 1.72932C54.9836 5.20199 38.9471 13.7737 26.3604 26.3604C13.7737 38.9471 5.20199 54.9836 1.72932 72.4419C-1.74335 89.9002 0.0389552 107.996 6.85084 124.442C13.6627 140.887 25.1983 154.943 39.9987 164.832C54.7991 174.722 72.1997 180 90 180V165.6C75.0477 165.6 60.4312 161.166 47.9989 152.859C35.5665 144.552 25.8767 132.745 20.1547 118.931C14.4327 105.117 12.9356 89.9161 15.8526 75.2512C18.7697 60.5862 25.9699 47.1156 36.5427 36.5427C47.1156 25.9699 60.5862 18.7697 75.2512 15.8526C89.9161 12.9356 105.117 14.4327 118.931 20.1547C132.745 25.8767 144.552 35.5665 152.859 47.9989C161.166 60.4312 165.6 75.0477 165.6 90H180Z" fill="#FF8B3C"/>
<path d="M86.4017 67.5811C87.8506 64.5446 92.1728 64.5446 93.6218 67.5811L97.7172 76.1637C98.3003 77.3858 99.4621 78.2298 100.805 78.4068L110.233 79.6496C113.568 80.0893 114.904 84.2 112.464 86.5163L105.567 93.0635C104.585 93.9957 104.141 95.3615 104.388 96.6929L106.119 106.044C106.732 109.352 103.235 111.892 100.278 110.287L91.9198 105.751C90.7297 105.105 89.2937 105.105 88.1037 105.751L79.7456 110.287C76.7886 111.892 73.2918 109.352 73.9044 106.044L75.6359 96.6929C75.8824 95.3615 75.4387 93.9957 74.4567 93.0635L67.5596 86.5163C65.1195 84.2 66.4552 80.0893 69.7908 79.6496L79.2189 78.4068C80.5613 78.2298 81.7231 77.3858 82.3062 76.1637L86.4017 67.5811Z" fill="#454C52"/>
</svg>
