<svg width="180" height="180" viewBox="0 0 180 180" fill="none" xmlns="http://www.w3.org/2000/svg">
<path d="M90 180C107.8 180 125.201 174.722 140.001 164.832C154.802 154.943 166.337 140.887 173.149 124.442C179.961 107.996 181.743 89.9002 178.271 72.4419C174.798 54.9836 166.226 38.9471 153.64 26.3604C141.053 13.7737 125.016 5.20199 107.558 1.72932C90.0998 -1.74335 72.0038 0.0389505 55.5585 6.85084C39.1131 13.6627 25.0571 25.1982 15.1677 39.9987C5.27841 54.7991 -3.15595e-06 72.1997 -3.93402e-06 90L14.4 90C14.4 75.0477 18.8339 60.4312 27.1409 47.9989C35.4479 35.5665 47.255 25.8767 61.0691 20.1547C74.8832 14.4327 90.0839 12.9356 104.749 15.8526C119.414 18.7697 132.884 25.9699 143.457 36.5427C154.03 47.1156 161.23 60.5862 164.147 75.2512C167.064 89.9161 165.567 105.117 159.845 118.931C154.123 132.745 144.433 144.552 132.001 152.859C119.569 161.166 104.952 165.6 90 165.6L90 180Z" fill="#FF8B3C"/>
<path d="M111 65C113.209 65 115 66.7909 115 69V85C115 101.569 101.569 115 85 115H67.4746L80.2959 102.179H96.7139C97.6803 102.179 98.4638 101.395 98.4639 100.429C98.4639 99.4622 97.6804 98.6787 96.7139 98.6787H83.7969L86.5234 95.9521L104.237 78.2373C104.921 77.5539 104.921 76.4461 104.237 75.7627C103.554 75.0793 102.446 75.0793 101.763 75.7627L87.0361 90.4883V77C87.0361 76.0336 86.2524 75.2502 85.2861 75.25C84.3196 75.25 83.5361 76.0335 83.5361 77V93.9883L78.334 99.1914L65 112.525V95C65 78.4315 78.4315 65 95 65H111Z" fill="#454C52"/>
</svg>
