<svg width="180" height="180" viewBox="0 0 180 180" fill="none" xmlns="http://www.w3.org/2000/svg">
<path d="M90 1.07324e-06C72.1997 8.60973e-07 54.7991 5.27841 39.9987 15.1677C25.1983 25.0571 13.6627 39.1131 6.85084 55.5585C0.0389563 72.0038 -1.74334 90.0998 1.72933 107.558C5.202 125.016 13.7737 141.053 26.3604 153.64C38.9471 166.226 54.9836 174.798 72.4419 178.271C89.9002 181.743 107.996 179.961 124.442 173.149C140.887 166.337 154.943 154.802 164.832 140.001C174.722 125.201 180 107.8 180 90L165.6 90C165.6 104.952 161.166 119.569 152.859 132.001C144.552 144.433 132.745 154.123 118.931 159.845C105.117 165.567 89.9161 167.064 75.2512 164.147C60.5862 161.23 47.1156 154.03 36.5427 143.457C25.9699 132.884 18.7697 119.414 15.8526 104.749C12.9356 90.0839 14.4327 74.8832 20.1547 61.0691C25.8767 47.255 35.5665 35.4479 47.9989 27.1409C60.4312 18.8339 75.0477 14.4 90 14.4L90 1.07324e-06Z" fill="#FF8B3C"/>
<path d="M90.001 113.772L102.463 83.6094H77.5391L90.001 113.772Z" fill="#454C52"/>
<path d="M106.108 80.2231H117.918L102.633 64.9375L106.108 80.2231Z" fill="#454C52"/>
<path d="M106.129 83.6094L94.8711 110.857L118.001 83.6094H106.129Z" fill="#454C52"/>
<path d="M73.8723 83.6094H62L85.1298 110.857L73.8723 83.6094Z" fill="#454C52"/>
<path d="M77.3672 80.2239H102.634L99.0089 64.2812H80.9919L77.3672 80.2239Z" fill="#454C52"/>
<path d="M73.892 80.2231L77.3676 64.9375L62.082 80.2231H73.892Z" fill="#454C52"/>
</svg>
