<svg width="80" height="62" viewBox="0 0 80 62" fill="none" xmlns="http://www.w3.org/2000/svg">
<path d="M77.2604 54.5203L10.9346 54.3858C10.8867 54.991 10.9634 55.5997 11.16 56.1741C11.3566 56.7486 11.6688 57.2766 12.0775 57.7256C12.4862 58.1747 12.9826 58.5352 13.536 58.7848C14.0895 59.0345 14.6883 59.168 15.2954 59.1772C31.1231 59.1772 46.9239 59.1772 62.7516 59.1772C65.8741 59.1772 69.1311 59.5271 72.2805 59.3387C75.4299 59.1502 77.4488 57.4544 77.3411 54.5203M57.2065 52.0708H63.8283C64.8988 50.6298 65.6262 48.9634 65.9548 47.1987C64.1688 46.9811 62.3597 47.3356 60.7878 48.211C59.2158 49.0865 57.962 50.4378 57.2065 52.0708ZM53.4918 52.0708H54.5686C55.0546 50.6713 55.8242 49.3871 56.8293 48.2987C57.8344 47.2102 59.0533 46.3409 60.4097 45.7451L59.0638 41.3844C57.0704 42.251 55.432 43.7714 54.419 45.6946C53.406 47.6179 53.0789 49.829 53.4918 51.9631M18.4986 51.9631H50.8001C50.4716 48.9588 51.246 45.9375 52.9791 43.4616C54.7123 40.9856 57.286 39.2239 60.2213 38.5042C60.9466 39.873 61.5675 41.2948 62.0787 42.7572C62.3836 43.4566 62.6093 44.188 62.7516 44.9376C64.7198 44.6821 66.7182 44.7916 68.6466 45.2606C68.4257 47.6803 67.7499 50.0364 66.6547 52.2054H72.6574C73.5659 50.928 74.2081 49.4809 74.5457 47.9502C74.8833 46.4195 74.9094 44.8365 74.6224 43.2955C73.7341 28.06 59.7906 16.7814 43.7745 16.0816C40.6251 15.947 36.6143 15.9201 33.4649 16.0816C32.4421 16.0816 31.3384 16.4046 30.2886 16.3776C33.3253 18.6173 35.7202 21.6156 37.2334 25.0721C37.4757 25.9335 37.9871 27.4948 36.5874 27.7639C35.1877 28.0331 34.9185 26.0681 34.4071 24.8837C32.3882 20.1731 23.1015 13.9281 18.041 12.2592C10.4232 9.72891 8.78122 13.9013 9.2119 20.1462C9.8041 28.6792 14.4071 40.6037 25.9279 38.5849C27.0046 38.3965 28.4313 37.5082 29.2657 38.3696C31.0154 40.1193 26.9777 40.7922 25.8202 41.0614C22.8939 41.5137 19.8992 41.0598 17.2383 39.7607C14.5774 38.4615 12.3777 36.3792 10.9346 33.7935C10.9346 33.7935 10.7193 33.7936 10.6924 33.9282C10.4913 34.7586 10.3651 35.6054 10.3155 36.4584C10.1838 39.5389 10.8597 42.6003 12.2763 45.3389C13.6928 48.0776 15.8007 50.3982 18.3909 52.0708M48.0006 14.1973C44.259 10.9133 34.5417 5.17983 33.9495 13.9012C38.6332 13.9012 43.3438 13.6589 48.0006 14.1973ZM6.00867 7.97926L8.70046 11.2902L11.3922 9.48666L8.70046 6.28342C8.70046 6.01424 9.45417 5.52979 9.61568 5.26061C10.5578 3.56478 8.2967 2.2996 6.92389 3.45707C6.08943 4.13002 6.43935 5.01835 6.38552 5.93356C5.22805 5.93356 4.47436 5.1798 3.37072 5.79892C1.70181 6.71412 2.7516 8.81372 4.74352 8.49071C5.09345 8.49071 6.06251 7.81778 6.22401 7.92545M33.3842 9.21754C33.3842 8.73302 35.1069 7.65624 35.1069 7.54856L32.9266 4.85677C32.9266 4.453 33.7072 4.26462 33.8956 3.88777C34.5416 2.62263 32.8997 1.68053 31.7691 2.48807C31.0692 2.99951 31.4461 3.9416 31.3653 4.64147C31.2038 4.80297 27.6776 3.26862 27.9198 5.44897C28.0813 6.79487 29.9925 6.3911 30.8808 5.96042L33.3842 9.21754ZM79.7637 55.947C79.4291 57.4591 78.6184 58.8241 77.4508 59.8415C76.2832 60.8589 74.8202 61.4751 73.2765 61.5998C55.6453 61.5998 37.9871 61.842 20.3828 61.4651C16.4797 61.4651 12.6305 62.2458 9.831 59.0695C9.05675 58.1725 8.51178 57.101 8.24286 55.947V52.0977H14.3263C11.7689 49.7241 9.83651 46.7561 8.70046 43.457C7.55858 39.8507 7.47451 35.9927 8.45821 32.34C8.45821 31.7747 9.10423 30.6441 9.10423 30.2673C9.10423 29.8904 7.65066 25.7989 7.38149 24.5338C6.385 20.959 6.385 17.1798 7.38149 13.6051L5.06654 10.9133C0.0328969 12.0169 -2.57814 5.36824 2.37475 3.61857C2.82894 3.54707 3.27839 3.44823 3.72065 3.32252C3.72065 3.32252 4.28593 2.4073 4.52819 2.13812C7.70451 -1.22662 13.8149 2.13811 11.6614 6.41806L14.0033 9.10985C18.8978 9.72993 23.5412 11.6337 27.4622 14.628L31.2577 14.0897L31.6614 11.6132L29.4003 8.9214C24.8243 9.29825 23.1554 3.53785 27.6507 2.21887C27.9737 2.21887 28.7812 2.05732 28.8889 2.00348C28.9966 1.94965 29.0773 1.54593 29.2388 1.38442C32.2267 -1.92648 37.7179 1.24982 35.6991 5.15291L37.2065 7.03712C42.8054 7.17171 47.6776 10.8595 51.6345 14.2242C51.9845 14.5203 52.469 15.1933 52.7381 15.3548C53.6264 15.9201 56.9643 16.7814 58.3371 17.4275C63.4791 19.672 67.9235 23.2572 71.2052 27.808C74.4868 32.3587 76.4852 37.7078 76.9912 43.2955C77.4292 46.3912 76.9422 49.5473 75.5914 52.3669H79.656C79.656 53.5513 79.8176 55.0587 79.656 56.1354" fill="#FF8B3C"/>
</svg>
