<svg width="80" height="80" viewBox="0 0 80 80" fill="none" xmlns="http://www.w3.org/2000/svg">
<path d="M56.3136 69.7529C51.9038 71.9195 47.1089 73.1921 42.2051 73.4972C37.3013 73.8023 32.3856 73.134 27.7413 71.5308C21.6983 69.3176 16.4482 65.3606 12.656 60.1612C8.86377 54.9617 6.70007 48.7537 6.439 42.3235H73.4887C73.2455 48.003 71.5243 53.5207 68.4954 58.3313C65.4665 63.1419 61.2348 67.0787 56.2183 69.7529M9.93117 35.5614C10.4709 35.3392 11.4868 34.736 11.963 35.2122L15.5504 39.9425H6.439C6.12153 37.498 7.96285 36.3868 9.93117 35.5614ZM6.439 21.1482C6.40488 20.8252 6.44748 20.4988 6.56333 20.1953C6.67917 19.8919 6.865 19.6202 7.10569 19.4022C8.18763 18.3572 9.50612 17.5892 10.9488 17.1635C12.3916 16.7379 13.9158 16.6673 15.3917 16.9577C24.5348 18.291 26.3761 30.3231 23.1062 37.4344C22.8839 37.4344 22.8839 37.244 22.8205 37.0535C22.5347 36.2916 22.4077 35.3074 22.122 34.482C20.0988 28.8404 16.7061 23.7896 12.2487 19.7831L10.6931 21.6562C16.0765 26.39 19.7107 32.7974 21.0109 39.8472H19.0426C15.9087 36.3708 13.0932 32.6202 10.6296 28.6406C8.93924 26.3328 7.60179 23.7863 6.66123 21.0847M38.8527 28.4183C36.4446 29.0742 34.3902 30.6492 33.1316 32.8044C31.8729 34.9596 31.5105 37.5228 32.1224 39.9425H26.5984C30.1857 36.0055 32.4118 31.019 32.9478 25.7198L30.5667 25.4341C30.174 29.5962 28.5616 33.5498 25.9317 36.7996C27.5432 31.8614 27.2719 26.5016 25.1698 21.7514C29.3921 16.1004 38.694 22.7038 38.7892 28.4183M42.5354 32.7676V30.5136C43.8743 30.715 45.1253 31.303 46.1348 32.2053C47.1443 33.1077 47.8684 34.2851 48.2181 35.5932L45.9323 36.3233C45.5831 36.5773 46.4085 38.1647 46.4403 38.5774L48.5356 38.0059L48.0911 39.879H34.9796C34.7891 39.879 34.6621 39.879 34.5351 39.7202C34.2102 38.7609 34.0807 37.7462 34.1542 36.736L36.2494 37.3075L36.8209 35.117L34.9161 34.482C35.3633 33.4125 36.0817 32.4782 37.0003 31.7712C37.9189 31.0641 39.0061 30.6088 40.1544 30.4502V32.7042L42.5354 32.7676ZM50.7579 36.3551C52.7262 36.7043 55.4564 37.6567 56.885 35.6566C59.0755 32.4819 54.1548 27.9103 57.52 23.8467C59.7423 21.1482 64.8853 19.8466 66.3456 23.8467C67.124 26.3245 66.9658 29.0018 65.9012 31.3708C65.171 32.6724 63.3297 34.0058 64.2503 35.6884C65.171 37.371 67.1393 36.7677 68.4727 37.0217C70.01 37.3442 71.3956 38.1712 72.4093 39.3711C72.4093 39.3711 72.695 39.5615 72.6315 39.8155H60.7899C61.574 35.4665 62.6344 31.172 63.9646 26.958L61.8058 26.323C60.7715 29.2184 59.9231 32.1769 59.266 35.1804C58.9803 36.4186 58.7899 38.3552 58.4089 39.5615C58.3742 39.6644 58.3074 39.7533 58.2184 39.8155H50.6626C50.9636 38.6386 50.9636 37.4049 50.6626 36.228M75.3301 39.4027C74.4577 37.8448 73.1792 36.5527 71.6306 35.6638C70.082 34.7749 68.3214 34.3226 66.5361 34.355C67.7072 32.9643 68.5287 31.3137 68.9318 29.5409C69.335 27.7681 69.3082 25.9246 68.8536 24.1642C67.7425 18.7672 62.5042 17.3703 58.0279 20.0688C56.5878 20.8222 55.4137 21.9994 54.6643 23.4416C53.9148 24.8837 53.6262 26.5211 53.8373 28.1326C53.9961 29.7199 55.0437 32.0375 55.0119 33.4026C55.0119 35.3709 51.0436 33.4026 49.9642 33.4026C49.2047 31.6958 47.9601 30.2501 46.3852 29.2453C44.8103 28.2405 42.9747 27.7211 41.1068 27.7516C40.4401 20.1324 29.8366 13.1797 23.5824 19.3704C20.5664 14.1321 11.9947 13.021 7.07393 15.9417C2.15314 18.8625 4.62941 23.4023 7.07393 27.2755C8.15333 29.1168 9.35971 30.8628 10.5661 32.6089C7.04218 34.0058 4.56591 35.1169 4.21669 39.3393C3.90394 46.9851 6.11115 54.5219 10.499 60.7911C14.8869 67.0603 21.2125 71.7147 28.5032 74.0388C48.7578 80.3882 70.7267 69.4355 75.2666 48.292C76.1894 45.3976 76.2446 42.2964 75.4253 39.3711" fill="#FF8B3C"/>
<path d="M49.9311 10.6745C50.6758 10.3651 51.4533 10.1414 52.2486 10.0078H56.8202V12.1666C56.5227 14.0297 55.6441 15.7511 54.31 17.0852C52.9759 18.4193 51.2545 19.2978 49.3914 19.5954H46.9151L52.7566 14.4206L51.201 12.7063L44.8516 18.1032C44.9292 16.5124 45.4485 14.9746 46.3514 13.6625C47.2542 12.3503 48.5048 11.3156 49.9628 10.6745M43.6134 21.9764C46.5664 22.2986 49.5538 22.0398 52.4074 21.2145C54.7497 20.1725 56.679 18.3811 57.8917 16.1224C59.1044 13.8638 59.5315 11.266 59.106 8.73793C59.1104 8.59082 59.0846 8.44437 59.0303 8.30757C58.976 8.17077 58.8944 8.04648 58.7903 7.94241C58.6862 7.83834 58.562 7.75662 58.4252 7.70233C58.2884 7.64805 58.1419 7.62237 57.9948 7.62676C56.0085 7.46816 54.0127 7.46816 52.0264 7.62676C50.4964 7.82492 49.023 8.33335 47.6964 9.12091C46.3698 9.90847 45.2179 10.9585 44.3114 12.2069C43.4049 13.4552 42.7628 14.8755 42.4244 16.3806C42.086 17.8858 42.0585 19.4443 42.3436 20.9605C42.3436 21.6906 42.9467 21.9129 43.6134 21.9446" fill="#FF8B3C"/>
<path d="M20.2281 6.38836C20.4051 6.35974 20.5862 6.36995 20.7589 6.4182C20.9316 6.46646 21.0918 6.55164 21.2283 6.66787C21.3648 6.78411 21.4745 6.92857 21.5497 7.09135C21.6249 7.25413 21.6638 7.43134 21.6638 7.61065C21.6638 7.78996 21.6249 7.96708 21.5497 8.12986C21.4745 8.29264 21.3648 8.4372 21.2283 8.55343C21.0918 8.66967 20.9316 8.75485 20.7589 8.8031C20.5862 8.85136 20.4051 8.86157 20.2281 8.83295C19.9377 8.786 19.6736 8.6372 19.4829 8.41324C19.2923 8.18929 19.1876 7.90477 19.1876 7.61065C19.1876 7.31654 19.2923 7.03202 19.4829 6.80806C19.6736 6.58411 19.9377 6.43531 20.2281 6.38836ZM20.2281 11.214C20.9376 11.214 21.6312 11.0035 22.2211 10.6093C22.8111 10.2151 23.2709 9.65491 23.5424 8.99939C23.8139 8.34388 23.885 7.62254 23.7466 6.92665C23.6081 6.23076 23.2664 5.59153 22.7647 5.08982C22.263 4.58811 21.6238 4.24642 20.9279 4.108C20.2321 3.96958 19.5107 4.04061 18.8552 4.31213C18.1997 4.58366 17.6394 5.04349 17.2452 5.63344C16.851 6.22339 16.6406 6.91702 16.6406 7.62654C16.6406 8.57798 17.0186 9.4904 17.6914 10.1632C18.3642 10.8359 19.2766 11.214 20.2281 11.214Z" fill="#FF8B3C"/>
<path d="M35.2632 9.8805C35.586 9.88878 35.8928 10.0229 36.1182 10.2542C36.3436 10.4855 36.4697 10.7957 36.4696 11.1187C36.4696 11.4386 36.3425 11.7454 36.1162 11.9716C35.89 12.1979 35.5831 12.325 35.2632 12.325C34.9402 12.3251 34.63 12.1991 34.3987 11.9737C34.1674 11.7483 34.0333 11.4415 34.025 11.1187C34.0331 10.7928 34.1661 10.4825 34.3966 10.252C34.6271 10.0216 34.9373 9.88855 35.2632 9.8805ZM35.2632 14.706C36.2146 14.706 37.1271 14.3281 37.7999 13.6553C38.4727 12.9825 38.8506 12.0701 38.8506 11.1187C38.8506 10.1672 38.4727 9.25473 37.7999 8.58196C37.1271 7.90919 36.2146 7.53125 35.2632 7.53125C34.3117 7.53125 33.3993 7.90919 32.7265 8.58196C32.0537 9.25473 31.6758 10.1672 31.6758 11.1187C31.6758 12.0701 32.0537 12.9825 32.7265 13.6553C33.3993 14.3281 34.3117 14.706 35.2632 14.706Z" fill="#FF8B3C"/>
<path d="M26.3412 67.3451L27.3253 65.0911C22.08 62.6439 17.6657 58.715 14.6265 53.7891L12.5312 54.9955C15.8422 60.3151 20.5841 64.595 26.2142 67.3451" fill="#FF8B3C"/>
<path d="M31.6467 66.2969H29.2656V68.6779H31.6467V66.2969Z" fill="#FF8B3C"/>
<path d="M42.4357 35.1562H40.0547V37.5373H42.4357V35.1562Z" fill="#FF8B3C"/>
</svg>
