<svg width="180" height="187" viewBox="0 0 180 187" fill="none" xmlns="http://www.w3.org/2000/svg">
<g clip-path="url(#clip0_2822_6345)">
<path d="M51.4248 158.382C49.3537 159.721 46.9367 160.425 44.4707 160.408C37.4205 160.408 32.1953 155.15 32.1953 148.522C32.1953 141.895 37.4781 136.641 44.5379 136.641C51.5977 136.641 56.8132 141.895 56.8132 148.522C56.8279 150.867 56.1203 153.159 54.7866 155.087L57.1398 157.08L53.9413 160.639M46.8527 154.367L43.6878 151.658L46.8864 148.066L49.9888 150.875C50.2611 150.145 50.3946 149.369 50.3826 148.589C50.3826 145.256 47.9813 142.346 44.4707 142.346C40.96 142.346 38.7076 145.228 38.7076 148.589C38.7076 151.951 41.0416 154.804 44.5427 154.804C45.3341 154.806 46.1189 154.661 46.8575 154.376" fill="#454C52"/>
<path d="M58.0234 149.934V137.102H64.4589V149.804C64.4589 153.099 66.1205 154.665 68.6707 154.665C71.2209 154.665 72.8826 153.166 72.8826 149.968V137.102H79.3132V149.771C79.3132 157.147 75.1013 160.38 68.6035 160.38C62.1056 160.38 58.0378 157.085 58.0378 149.934" fill="#454C52"/>
<path d="M87.7784 137.102H81.4102V159.957H87.7784V137.102Z" fill="#454C52"/>
<path d="M89.375 148.522C89.375 141.861 94.4993 136.641 101.425 136.641C106.093 136.641 108.998 138.663 111.03 141.472L106.395 145.064C105.089 143.431 103.552 142.418 101.367 142.418C98.1685 142.418 95.9161 145.127 95.9161 148.522C95.9161 151.918 98.1685 154.631 101.367 154.631C103.768 154.631 105.151 153.522 106.525 151.855L111.289 155.251C109.138 158.219 106.232 160.408 101.17 160.408C94.6386 160.408 89.3846 155.414 89.3846 148.522" fill="#454C52"/>
<path d="M112.203 137.102H118.533V146.371L126.404 137.102H133.911L125.261 146.928L134.208 159.957H126.601L120.853 151.466L118.533 154.045V159.957H112.203" fill="#454C52"/>
<path d="M147.852 158.026C145.919 159.544 143.528 160.361 141.071 160.346C136.403 160.346 132.906 157.892 132.906 153.685C132.906 150.842 134.438 148.685 137.541 147.283C136.577 146.002 136.05 144.444 136.038 142.841C136.038 139.513 138.746 136.641 143.241 136.641C147.386 136.641 150.032 139.186 150.032 142.581C150.032 145.391 148.236 147.283 145.556 148.522L148.106 151.005C148.897 149.843 149.616 148.634 150.258 147.384L154.441 149.473C153.536 151.153 152.524 152.774 151.411 154.324L154.479 157.359L150.195 160.408M144.615 154.693L140.859 150.875C139.716 151.562 139.226 152.441 139.226 153.421C139.226 154.761 140.341 155.673 141.906 155.673C142.884 155.626 143.826 155.292 144.615 154.713M144.975 142.831C144.994 142.592 144.963 142.351 144.882 142.125C144.801 141.898 144.673 141.692 144.506 141.519C144.34 141.346 144.138 141.21 143.915 141.121C143.692 141.032 143.453 140.991 143.213 141.001C142.137 141.001 141.383 141.818 141.383 143.09C141.383 143.969 141.777 144.723 142.559 145.703C144.192 144.983 144.961 144.104 144.961 142.822" fill="#454C52"/>
<path d="M62.7969 163.352H72.5893C78.3524 163.352 82.0936 166.32 82.0936 171.449C82.0936 176.832 77.9442 179.675 72.2627 179.675H69.1315V186.207H62.7969M72.1331 174.714C74.3855 174.714 75.759 173.538 75.759 171.674C75.759 169.715 74.3855 168.673 72.1042 168.673H69.1315V174.714H72.1331Z" fill="#454C52"/>
<path d="M82.9609 163.352H93.7667C97.2582 163.352 99.6787 164.264 101.211 165.801C102.551 167.136 103.237 168.903 103.237 171.218C103.237 174.714 101.374 177.029 98.5356 178.24L103.987 186.207H96.6819L92.0858 179.296H89.3099V186.221H82.9609M93.4738 174.335C95.6301 174.335 96.8692 173.288 96.8692 171.559C96.8692 169.83 95.5629 168.851 93.4401 168.851H89.2955V174.335H93.4738Z" fill="#454C52"/>
<path d="M103.875 174.777C103.875 168.217 109.158 162.891 116.213 162.891C123.268 162.891 128.493 168.149 128.493 174.777C128.493 181.404 123.21 186.663 116.15 186.663C109.091 186.663 103.875 181.38 103.875 174.777ZM122.024 174.777C122.024 171.482 119.623 168.606 116.15 168.606C112.678 168.606 110.387 171.415 110.387 174.777C110.387 178.139 112.789 180.948 116.232 180.948C119.675 180.948 122.043 178.139 122.043 174.777" fill="#454C52"/>
<path d="M46.6992 29.4609H69.2953C76.6 29.4609 81.6523 31.382 84.8604 34.5805C87.6603 37.3804 89.0914 41.0639 89.0914 45.9097C89.0914 53.2144 85.2014 58.065 79.2606 60.5863L90.6475 77.2416H75.3705L65.7654 62.7667H59.9447V77.2416H46.6992M68.6806 52.3932C73.1854 52.3932 75.7835 50.208 75.7835 46.5917C75.7835 42.8361 73.0509 40.9246 68.6133 40.9246H59.9447V52.3932H68.6806Z" fill="#454C52"/>
<path d="M91.4141 56.2832V29.4609H104.861V56.0143C104.861 62.9108 108.343 66.1861 113.669 66.1861C118.995 66.1861 122.477 63.0452 122.477 56.3553V29.4609H135.924V55.9471C135.924 71.3729 127.116 78.1301 113.53 78.1301C99.9434 78.1301 91.4141 71.2432 91.4141 56.2832Z" fill="#454C52"/>
<path d="M0 105.848C0 91.921 10.7193 81 25.1894 81C34.9482 81 41.0379 85.2359 45.2593 91.0854L35.563 98.611C32.8351 95.2012 29.627 93.0832 25.055 93.0832C18.365 93.0832 13.6537 98.7503 13.6537 105.848C13.6537 112.947 18.365 118.614 25.055 118.614C30.0352 118.614 32.9696 116.294 35.8367 112.812L45.8068 119.91C41.2972 126.125 35.2412 130.697 24.6419 130.697C10.9883 130.697 0 120.251 0 105.848Z" fill="#454C52"/>
<path d="M46.6953 81.9609H59.936V99.8457H76.937V81.9609H90.1777V129.746H76.937V111.588H59.936V129.746H46.6953" fill="#454C52"/>
<path d="M94.1953 81.9609H132.63V93.2229H107.302V100.46H130.239V110.906H107.302V118.484H132.971V129.746H94.1953" fill="#454C52"/>
<path d="M136.656 81.9609H174.885V93.5687H149.897V101.69H172.493V112.683H149.897V129.746H136.656" fill="#454C52"/>
<path d="M153.02 53.1582C153.02 54.4643 152.632 55.741 151.907 56.8269C151.181 57.9129 150.15 58.7593 148.943 59.2591C147.736 59.7589 146.409 59.8896 145.128 59.6348C143.847 59.38 142.67 58.7511 141.747 57.8276C140.823 56.9041 140.194 55.7275 139.939 54.4465C139.685 53.1655 139.815 51.8378 140.315 50.6311C140.815 49.4245 141.661 48.3932 142.747 47.6676C143.833 46.942 145.11 46.5547 146.416 46.5547C148.167 46.5547 149.847 47.2504 151.085 48.4888C152.324 49.7272 153.02 51.4068 153.02 53.1582Z" fill="#454C52"/>
<path d="M114.237 45.5571C114.947 46.4216 115.677 46.1094 115.336 45.1057C114.726 43.3335 114.121 40.3367 115.255 35.7647C117.848 25.3287 123.688 17.8799 118.492 6.22894C117.525 4.18465 116.339 2.25214 114.952 0.465863C114.261 -0.403401 113.574 -0.0143996 114.016 0.984533C114.914 3.06404 115.529 6.17611 114.294 10.6761C111.504 21.016 106.442 28.1718 111.11 40.2119C111.905 42.1229 112.957 43.9164 114.237 45.5427" fill="#FF8B3C"/>
<path d="M155.84 128.359H154.02V130.156H155.84V128.359Z" fill="#454C52"/>
<path d="M157.258 127.158C157.252 126.742 157.33 126.33 157.487 125.946C157.644 125.561 157.877 125.212 158.172 124.92C158.467 124.628 158.818 124.398 159.204 124.244C159.59 124.091 160.003 124.017 160.418 124.026C160.873 124.006 161.326 124.091 161.742 124.274C162.159 124.458 162.527 124.734 162.819 125.083L161.821 126.091C161.642 125.898 161.424 125.744 161.181 125.642C160.939 125.539 160.677 125.489 160.413 125.496C160.007 125.553 159.636 125.757 159.37 126.07C159.104 126.382 158.962 126.782 158.971 127.192C158.98 127.602 159.139 127.995 159.418 128.296C159.697 128.597 160.077 128.785 160.485 128.824C160.747 128.816 161.004 128.755 161.241 128.645C161.478 128.534 161.69 128.376 161.864 128.181L162.863 129.194C162.566 129.555 162.189 129.842 161.762 130.033C161.336 130.223 160.871 130.313 160.404 130.294C159.99 130.302 159.579 130.226 159.194 130.071C158.81 129.916 158.462 129.685 158.169 129.393C157.876 129.1 157.645 128.751 157.491 128.367C157.336 127.983 157.26 127.572 157.268 127.158" fill="#454C52"/>
<path d="M163.397 127.157C163.373 126.508 163.543 125.867 163.887 125.316C164.23 124.765 164.731 124.329 165.324 124.064C165.917 123.799 166.575 123.718 167.215 123.831C167.854 123.943 168.446 124.244 168.913 124.695C169.38 125.147 169.702 125.727 169.836 126.363C169.971 126.998 169.912 127.659 169.668 128.261C169.424 128.863 169.006 129.378 168.467 129.74C167.928 130.102 167.293 130.295 166.643 130.294C166.223 130.306 165.804 130.234 165.412 130.082C165.02 129.93 164.662 129.701 164.36 129.409C164.057 129.117 163.816 128.767 163.651 128.38C163.486 127.994 163.399 127.578 163.397 127.157ZM168.199 127.157C168.208 126.944 168.173 126.731 168.098 126.531C168.022 126.331 167.908 126.148 167.76 125.993C167.613 125.838 167.436 125.714 167.24 125.629C167.044 125.543 166.833 125.498 166.619 125.496C166.405 125.493 166.192 125.535 165.994 125.619C165.797 125.703 165.619 125.827 165.472 125.983C165.325 126.139 165.212 126.324 165.14 126.526C165.068 126.729 165.038 126.943 165.054 127.157C165.045 127.372 165.08 127.585 165.156 127.786C165.231 127.987 165.346 128.17 165.494 128.325C165.642 128.481 165.819 128.605 166.016 128.691C166.212 128.776 166.424 128.822 166.638 128.824C166.853 128.826 167.066 128.783 167.263 128.699C167.46 128.614 167.638 128.49 167.785 128.333C167.931 128.177 168.044 127.991 168.115 127.789C168.187 127.586 168.215 127.371 168.199 127.157Z" fill="#454C52"/>
<path d="M170.805 124.14H172.514V124.995C172.709 124.702 172.972 124.462 173.281 124.294C173.59 124.127 173.935 124.037 174.287 124.034C174.632 124.014 174.976 124.095 175.278 124.265C175.579 124.435 175.825 124.688 175.987 124.995C176.22 124.693 176.519 124.45 176.861 124.283C177.204 124.117 177.58 124.032 177.961 124.034C179.233 124.034 179.997 124.798 179.997 126.243V130.167H178.287V126.805C178.287 125.994 177.927 125.581 177.288 125.581C176.649 125.581 176.256 125.994 176.256 126.805V130.167H174.546V126.805C174.546 125.994 174.186 125.581 173.547 125.581C172.908 125.581 172.514 125.994 172.514 126.805V130.167H170.805" fill="#454C52"/>
</g>
<defs>
<clipPath id="clip0_2822_6345">
<rect width="180" height="186.661" fill="white"/>
</clipPath>
</defs>
</svg>
