<svg width="551" height="551" viewBox="0 0 551 551" fill="none" xmlns="http://www.w3.org/2000/svg">
<g clip-path="url(#clip0_2789_1058)">
<path d="M275.503 551C123.587 551 -0.0178375 427.406 -0.0178375 275.5C-0.0178375 123.594 123.566 0 275.482 0C427.398 0 550.982 123.594 550.982 275.5C550.982 277.201 550.982 278.891 550.92 280.582L512.062 279.845C512.062 278.404 512.124 276.952 512.124 275.5C512.124 145.009 405.963 38.8579 275.482 38.8579C145.002 38.8579 38.8608 145.009 38.8608 275.5C38.8608 405.991 145.012 512.142 275.503 512.142" fill="#454C52"/>
<path d="M187.295 160.637H231.629C245.961 160.637 255.875 164.391 262.17 170.685C267.666 176.182 270.466 183.41 270.466 192.92C270.466 207.251 262.833 216.772 251.177 221.718L273.546 254.406H243.544L224.65 226.012H213.242V254.406H187.254M230.384 205.665C239.22 205.665 244.312 201.382 244.312 194.257C244.312 186.894 238.95 183.14 230.25 183.14H213.242V205.644L230.384 205.665Z" fill="#454C52"/>
<path d="M275.033 213.277V160.637H301.415V212.748C301.415 226.229 308.249 232.701 318.692 232.701C329.135 232.701 335.979 226.541 335.979 213.412V160.637H362.362V212.613C362.362 242.884 345.085 256.169 318.433 256.169C291.781 256.169 275.033 242.687 275.033 213.298" fill="#454C52"/>
<path d="M95.6537 310.538C95.6537 283.212 116.685 261.797 145.079 261.797C164.233 261.797 176.19 270.093 184.487 281.615L165.447 296.299C160.085 289.6 153.79 285.452 144.809 285.452C131.691 285.452 122.44 296.569 122.44 310.496C122.44 324.424 131.691 335.551 144.809 335.551C154.589 335.551 160.365 330.998 165.975 324.144L185.534 338.071C176.698 350.256 164.793 359.237 144.052 359.237C117.266 359.237 95.6953 338.745 95.6953 310.496" fill="#454C52"/>
<path d="M187.272 263.662H213.25V298.756H246.601V263.662H272.589V357.431H246.601V321.799H213.25V357.431H187.272" fill="#454C52"/>
<path d="M280.504 263.662H355.918V285.772H306.223V299.969H351.23V320.461H306.223V335.332H356.581V357.431H280.504" fill="#454C52"/>
<path d="M363.8 263.662H438.809V286.435H389.788V302.375H434.122V323.945H389.788V357.431H363.8" fill="#454C52"/>
<path d="M227.113 401.627H219.449V409.198H227.113V401.627Z" fill="#454C52"/>
<path d="M232.476 396.575C232.457 394.832 232.789 393.103 233.451 391.491C234.113 389.879 235.092 388.415 236.33 387.188C237.568 385.961 239.039 384.995 240.657 384.347C242.276 383.699 244.007 383.382 245.75 383.415C247.66 383.334 249.563 383.695 251.311 384.468C253.059 385.241 254.605 386.407 255.83 387.875L251.62 392.126C250.871 391.31 249.956 390.663 248.936 390.23C247.917 389.797 246.816 389.588 245.708 389.617C242.11 389.617 239.559 392.79 239.559 396.627C239.559 400.464 242.058 403.627 245.988 403.627C248.405 403.627 250.064 402.59 251.817 400.931L256.027 405.193C254.773 406.713 253.184 407.922 251.385 408.726C249.586 409.53 247.626 409.907 245.657 409.829C243.915 409.86 242.184 409.539 240.568 408.887C238.953 408.234 237.485 407.263 236.253 406.031C235.021 404.799 234.05 403.331 233.397 401.716C232.745 400.1 232.424 398.369 232.455 396.627" fill="#454C52"/>
<path d="M258.317 396.58C258.317 389.321 264.187 383.368 272.089 383.368C279.991 383.368 285.768 389.196 285.768 396.58C285.768 403.964 279.898 409.782 271.996 409.782C264.093 409.782 258.317 403.964 258.317 396.58ZM278.674 396.58C278.709 395.678 278.562 394.778 278.243 393.934C277.924 393.089 277.439 392.318 276.816 391.664C276.193 391.01 275.446 390.488 274.618 390.128C273.79 389.769 272.898 389.579 271.996 389.57C267.848 389.57 265.421 392.743 265.421 396.58C265.386 397.481 265.532 398.379 265.851 399.223C266.17 400.066 266.654 400.836 267.276 401.489C267.898 402.142 268.644 402.663 269.471 403.022C270.297 403.381 271.188 403.571 272.089 403.58C276.237 403.58 278.674 400.407 278.674 396.58Z" fill="#454C52"/>
<path d="M289.539 383.858H296.736V387.456C298.396 385.382 300.563 383.381 304.213 383.381C305.664 383.298 307.109 383.633 308.375 384.346C309.642 385.059 310.677 386.121 311.359 387.404C312.341 386.143 313.6 385.125 315.039 384.427C316.477 383.73 318.056 383.372 319.655 383.381C325.006 383.381 328.221 386.606 328.221 392.714V409.234H321.024V395.078C321.024 391.666 319.51 389.893 316.814 389.893C314.117 389.893 312.458 391.646 312.458 395.078V409.224H305.271V395.078C305.271 391.666 303.757 389.893 301.061 389.893C298.365 389.893 296.705 391.646 296.705 395.078V409.224H289.508" fill="#454C52"/>
<path d="M395.911 207.13C395.911 209.692 395.151 212.196 393.728 214.326C392.305 216.456 390.282 218.116 387.915 219.097C385.548 220.077 382.944 220.333 380.431 219.834C377.919 219.334 375.611 218.1 373.8 216.289C371.988 214.477 370.755 212.169 370.255 209.657C369.755 207.144 370.011 204.54 370.992 202.173C371.972 199.806 373.632 197.783 375.762 196.36C377.892 194.937 380.397 194.177 382.959 194.177C386.394 194.177 389.688 195.542 392.117 197.971C394.546 200.4 395.911 203.695 395.911 207.13Z" fill="#454C52"/>
<path d="M319.818 192.232C321.218 193.932 322.68 193.32 321.975 191.35C320.792 187.876 319.6 182.017 321.819 173.015C326.911 152.544 338.412 137.922 328.176 115.065C326.276 111.064 323.946 107.28 321.228 103.782C319.869 102.082 318.532 102.859 319.392 104.819C321.155 108.905 322.358 115.014 319.942 123.839C314.456 144.134 304.532 158.175 313.72 181.789C315.28 185.538 317.342 189.058 319.849 192.252" fill="#FF8B3C"/>
<path d="M320.925 542.253C318.039 544.685 314.508 546.223 310.762 546.681C300.07 548.061 291.058 541.113 289.814 531.053C288.569 520.994 295.507 511.982 306.209 510.603C316.911 509.224 325.913 516.172 327.168 526.231C327.656 529.789 327.033 533.411 325.384 536.601L329.335 539.163L325.187 545.188M313.168 537.047L307.827 533.552L311.975 527.486L317.233 531.136C317.497 529.973 317.547 528.771 317.378 527.589C316.725 522.539 312.535 518.598 307.184 519.293C301.833 519.988 298.981 524.789 299.645 529.892C300.308 534.994 304.425 538.841 309.725 538.188C310.926 538.033 312.089 537.661 313.157 537.089" fill="#454C52"/>
<path d="M339.472 525.415L333.416 506.748L342.749 503.71L348.743 522.19C350.299 526.991 353.462 528.485 357.164 527.282C360.866 526.079 362.588 523.134 361.074 518.446L355.007 499.728L364.34 496.689L370.324 515.128C373.809 525.871 369.204 532.56 359.746 535.63C350.289 538.7 342.801 535.827 339.421 525.415" fill="#454C52"/>
<path d="M382.194 487.971L373.396 492.169L388.46 523.739L397.258 519.54L382.194 487.971Z" fill="#454C52"/>
<path d="M399.996 498.977C398.659 496.963 397.743 494.699 397.302 492.323C396.86 489.946 396.903 487.504 397.428 485.144C397.953 482.785 398.949 480.555 400.356 478.589C401.763 476.623 403.553 474.962 405.617 473.704C407.969 472.045 410.705 471.013 413.567 470.706C416.429 470.4 419.321 470.828 421.971 471.952L418.985 480.414C415.956 479.377 413.146 479.377 410.325 481.192C406.177 483.847 405.576 489.198 408.386 493.564C411.196 497.93 416.35 499.537 420.468 496.882C423.579 494.901 424.408 492.309 424.792 489.032L433.742 489.436C433.431 495.047 431.512 500.273 425.01 504.473C423.02 505.8 420.784 506.711 418.434 507.153C416.084 507.595 413.669 507.558 411.334 507.045C408.999 506.532 406.791 505.553 404.843 504.167C402.895 502.78 401.246 501.015 399.996 498.977Z" fill="#454C52"/>
<path d="M425.124 460.869L432.269 454.315L441.862 464.768L441.136 446.164L449.598 438.397L450.023 458.432L473.585 463.856L465.019 471.727L449.753 468.108L449.805 473.407L455.924 480.075L448.789 486.629" fill="#454C52"/>
<path d="M492.472 435.954C492.487 439.718 491.221 443.375 488.884 446.324C484.497 451.966 478.254 453.874 473.173 449.923C469.74 447.247 468.579 443.369 469.802 438.308C467.35 438.263 464.977 437.435 463.03 435.944C459.007 432.832 458.084 426.828 462.294 421.425C466.193 416.416 471.752 415.618 475.848 418.812C479.239 421.446 479.841 425.397 478.824 429.794L484.217 429.058C483.552 427.008 482.766 424.999 481.863 423.043L488.313 419.932C489.498 422.585 490.502 425.315 491.321 428.104L497.875 427.253L497.564 435.301M471.399 425.065C471.128 424.817 470.807 424.63 470.458 424.515C470.109 424.401 469.74 424.361 469.374 424.399C469.009 424.438 468.656 424.553 468.338 424.737C468.021 424.922 467.745 425.171 467.531 425.47C466.494 426.776 466.805 428.446 468.34 429.618C469.592 430.46 471.103 430.828 472.602 430.655C473.266 428.01 472.934 426.237 471.399 425.034M485.41 436.638L477.269 437.582C477.101 438.382 477.156 439.212 477.429 439.982C477.701 440.752 478.18 441.432 478.814 441.948C480.432 443.203 482.579 442.726 483.999 440.838C484.855 439.603 485.328 438.142 485.358 436.638" fill="#454C52"/>
<path d="M477.641 401.466L484.828 388.316C489.069 380.559 495.789 377.749 502.675 381.503C509.934 385.464 510.681 393.118 506.512 400.74L504.21 404.95L512.973 409.742L508.317 418.245M499.751 397.266C501.4 394.248 500.788 391.542 498.33 390.183C495.872 388.825 493.29 389.81 491.61 392.879L489.463 396.893L497.573 401.321L499.751 397.266Z" fill="#454C52"/>
<path d="M495.075 368.083L500.54 352.527C502.303 347.477 504.844 344.459 507.799 343.018C509.551 342.28 511.453 341.97 513.348 342.113C515.243 342.256 517.077 342.848 518.699 343.84C520.32 344.832 521.682 346.195 522.672 347.818C523.662 349.44 524.251 351.275 524.392 353.17L538.651 349.333L534.949 359.89L522.629 363.001L521.229 367.004L531.216 370.51L528.011 379.656M516.179 358.47C517.216 355.358 516.386 353.035 513.887 352.154C511.388 351.272 509.313 352.672 508.245 355.732L506.171 361.726L514.094 364.495L516.179 358.47Z" fill="#454C52"/>
<path d="M524.721 333.912C514.807 332.366 508.014 323.116 509.673 312.455C511.333 301.795 520.521 295.147 530.528 296.713C540.536 298.279 547.245 307.509 545.576 318.169C543.906 328.83 534.739 335.478 524.721 333.912ZM529.004 306.482C524.026 305.704 519.121 308.629 518.291 313.907C517.462 319.186 521.174 323.303 526.256 324.091C531.337 324.879 536.139 321.944 536.958 316.718C537.777 311.491 534.085 307.27 529.004 306.482Z" fill="#454C52"/>
</g>
<defs>
<clipPath id="clip0_2789_1058">
<rect width="551" height="551" fill="white"/>
</clipPath>
</defs>
</svg>
