<svg width="27" height="27" viewBox="0 0 27 27" fill="none" xmlns="http://www.w3.org/2000/svg">
<path fill-rule="evenodd" clip-rule="evenodd" d="M13.6198 26.5906C11.0028 26.5906 9.78667 26.2069 7.67269 24.6721C6.33554 26.3987 2.10123 27.7481 1.91658 25.4394C1.91658 23.7064 1.53453 22.242 1.10156 20.6432C0.585799 18.6736 0 16.48 0 13.3017C0 5.71077 6.20182 0 13.5498 0C20.9041 0 26.6666 5.99216 26.6666 13.372C26.6912 20.6378 20.8541 26.5518 13.6198 26.5906ZM13.7281 6.56131C10.1496 6.37586 7.36069 8.86352 6.74306 12.7644C6.23367 15.994 7.13783 19.9269 7.90829 20.1316C8.27759 20.2211 9.20723 19.4664 9.78667 18.8846C10.7448 19.5493 11.8606 19.9486 13.0213 20.042C16.7292 20.2212 19.8974 17.3861 20.1464 13.6662C20.2913 9.93843 17.4364 6.78103 13.7281 6.56771V6.56131Z" fill="#454C52"/>
</svg>
