<svg width="27" height="23" viewBox="0 0 27 23" fill="none" xmlns="http://www.w3.org/2000/svg">
<path fill-rule="evenodd" clip-rule="evenodd" d="M1.83319 9.56655C8.99146 6.43045 13.7648 4.36296 16.1531 3.36405C22.9722 0.511963 24.3892 0.0165302 25.3128 0.0001746C25.5159 -0.0034254 25.9701 0.0471967 26.2643 0.287241C26.5127 0.48993 26.581 0.763741 26.6138 0.955919C26.6464 1.14809 26.6872 1.58586 26.6548 1.92793C26.2853 5.83222 24.6863 15.3069 23.8729 19.6798C23.5287 21.5301 22.8509 22.1504 22.1948 22.2112C20.7688 22.3431 19.686 21.2636 18.3049 20.3532C16.1438 18.9287 14.9228 18.0419 12.825 16.6519C10.4007 15.0453 11.9723 14.1624 13.3539 12.7194C13.7156 12.3418 19.9983 6.59537 20.1199 6.07409C20.1351 6.0089 20.1492 5.76587 20.0057 5.63755C19.8621 5.50923 19.6501 5.55311 19.4972 5.58801C19.2804 5.63747 15.828 7.93211 9.13982 12.4719C8.15984 13.1486 7.27222 13.4782 6.47693 13.461C5.6002 13.4419 3.9137 12.9626 2.65997 12.5527C1.12221 12.0501 -0.099964 11.7843 0.00646027 10.9307C0.0618926 10.486 0.670803 10.0313 1.83319 9.56655Z" fill="#454C52"/>
</svg>
