<svg width="291" height="4" viewBox="0 0 291 4" fill="none" xmlns="http://www.w3.org/2000/svg">
<path d="M1.75239 3.32789C1.28306 3.32789 0.872391 3.17856 0.520391 2.87989C0.173724 2.58122 0.000390649 2.17856 0.000390649 1.67189C0.000390649 1.32522 0.0803907 1.02656 0.240391 0.775891C0.400391 0.525224 0.613724 0.333224 0.880391 0.19989C1.14706 0.0665572 1.43772 -0.000109434 1.75239 -0.000109434C2.22706 -0.000109434 2.63506 0.149224 2.97639 0.447891C3.32306 0.741224 3.49639 1.14922 3.49639 1.67189C3.49639 2.01322 3.41639 2.30922 3.25639 2.55989C3.09639 2.80522 2.88306 2.99456 2.61639 3.12789C2.35506 3.26122 2.06706 3.32789 1.75239 3.32789ZM6.45552 3.32789C5.98618 3.32789 5.57552 3.17856 5.22352 2.87989C4.87685 2.58122 4.70352 2.17856 4.70352 1.67189C4.70352 1.32522 4.78352 1.02656 4.94352 0.775891C5.10352 0.525224 5.31685 0.333224 5.58352 0.19989C5.85018 0.0665572 6.14085 -0.000109434 6.45552 -0.000109434C6.93018 -0.000109434 7.33818 0.149224 7.67952 0.447891C8.02618 0.741224 8.19952 1.14922 8.19952 1.67189C8.19952 2.01322 8.11952 2.30922 7.95952 2.55989C7.79952 2.80522 7.58618 2.99456 7.31952 3.12789C7.05818 3.26122 6.77018 3.32789 6.45552 3.32789ZM11.1586 3.32789C10.6893 3.32789 10.2786 3.17856 9.92664 2.87989C9.57997 2.58122 9.40664 2.17856 9.40664 1.67189C9.40664 1.32522 9.48664 1.02656 9.64664 0.775891C9.80664 0.525224 10.02 0.333224 10.2866 0.19989C10.5533 0.0665572 10.844 -0.000109434 11.1586 -0.000109434C11.6333 -0.000109434 12.0413 0.149224 12.3826 0.447891C12.7293 0.741224 12.9026 1.14922 12.9026 1.67189C12.9026 2.01322 12.8226 2.30922 12.6626 2.55989C12.5026 2.80522 12.2893 2.99456 12.0226 3.12789C11.7613 3.26122 11.4733 3.32789 11.1586 3.32789ZM15.8618 3.32789C15.3924 3.32789 14.9818 3.17856 14.6298 2.87989C14.2831 2.58122 14.1098 2.17856 14.1098 1.67189C14.1098 1.32522 14.1898 1.02656 14.3498 0.775891C14.5098 0.525224 14.7231 0.333224 14.9898 0.19989C15.2564 0.0665572 15.5471 -0.000109434 15.8618 -0.000109434C16.3364 -0.000109434 16.7444 0.149224 17.0858 0.447891C17.4324 0.741224 17.6058 1.14922 17.6058 1.67189C17.6058 2.01322 17.5258 2.30922 17.3658 2.55989C17.2058 2.80522 16.9924 2.99456 16.7258 3.12789C16.4644 3.26122 16.1764 3.32789 15.8618 3.32789ZM20.5649 3.32789C20.0956 3.32789 19.6849 3.17856 19.3329 2.87989C18.9862 2.58122 18.8129 2.17856 18.8129 1.67189C18.8129 1.32522 18.8929 1.02656 19.0529 0.775891C19.2129 0.525224 19.4262 0.333224 19.6929 0.19989C19.9596 0.0665572 20.2502 -0.000109434 20.5649 -0.000109434C21.0396 -0.000109434 21.4476 0.149224 21.7889 0.447891C22.1356 0.741224 22.3089 1.14922 22.3089 1.67189C22.3089 2.01322 22.2289 2.30922 22.0689 2.55989C21.9089 2.80522 21.6956 2.99456 21.4289 3.12789C21.1676 3.26122 20.8796 3.32789 20.5649 3.32789ZM25.268 3.32789C24.7987 3.32789 24.388 3.17856 24.036 2.87989C23.6893 2.58122 23.516 2.17856 23.516 1.67189C23.516 1.32522 23.596 1.02656 23.756 0.775891C23.916 0.525224 24.1293 0.333224 24.396 0.19989C24.6627 0.0665572 24.9533 -0.000109434 25.268 -0.000109434C25.7427 -0.000109434 26.1507 0.149224 26.492 0.447891C26.8387 0.741224 27.012 1.14922 27.012 1.67189C27.012 2.01322 26.932 2.30922 26.772 2.55989C26.612 2.80522 26.3987 2.99456 26.132 3.12789C25.8707 3.26122 25.5827 3.32789 25.268 3.32789ZM29.9711 3.32789C29.5018 3.32789 29.0911 3.17856 28.7391 2.87989C28.3925 2.58122 28.2191 2.17856 28.2191 1.67189C28.2191 1.32522 28.2991 1.02656 28.4591 0.775891C28.6191 0.525224 28.8325 0.333224 29.0991 0.19989C29.3658 0.0665572 29.6565 -0.000109434 29.9711 -0.000109434C30.4458 -0.000109434 30.8538 0.149224 31.1951 0.447891C31.5418 0.741224 31.7151 1.14922 31.7151 1.67189C31.7151 2.01322 31.6351 2.30922 31.4751 2.55989C31.3151 2.80522 31.1018 2.99456 30.8351 3.12789C30.5738 3.26122 30.2858 3.32789 29.9711 3.32789ZM34.6743 3.32789C34.2049 3.32789 33.7943 3.17856 33.4423 2.87989C33.0956 2.58122 32.9223 2.17856 32.9223 1.67189C32.9223 1.32522 33.0023 1.02656 33.1623 0.775891C33.3223 0.525224 33.5356 0.333224 33.8023 0.19989C34.0689 0.0665572 34.3596 -0.000109434 34.6743 -0.000109434C35.1489 -0.000109434 35.5569 0.149224 35.8983 0.447891C36.2449 0.741224 36.4183 1.14922 36.4183 1.67189C36.4183 2.01322 36.3383 2.30922 36.1783 2.55989C36.0183 2.80522 35.8049 2.99456 35.5383 3.12789C35.2769 3.26122 34.9889 3.32789 34.6743 3.32789ZM39.3774 3.32789C38.9081 3.32789 38.4974 3.17856 38.1454 2.87989C37.7987 2.58122 37.6254 2.17856 37.6254 1.67189C37.6254 1.32522 37.7054 1.02656 37.8654 0.775891C38.0254 0.525224 38.2387 0.333224 38.5054 0.19989C38.7721 0.0665572 39.0627 -0.000109434 39.3774 -0.000109434C39.8521 -0.000109434 40.2601 0.149224 40.6014 0.447891C40.9481 0.741224 41.1214 1.14922 41.1214 1.67189C41.1214 2.01322 41.0414 2.30922 40.8814 2.55989C40.7214 2.80522 40.5081 2.99456 40.2414 3.12789C39.9801 3.26122 39.6921 3.32789 39.3774 3.32789ZM44.0805 3.32789C43.6112 3.32789 43.2005 3.17856 42.8485 2.87989C42.5018 2.58122 42.3285 2.17856 42.3285 1.67189C42.3285 1.32522 42.4085 1.02656 42.5685 0.775891C42.7285 0.525224 42.9418 0.333224 43.2085 0.19989C43.4752 0.0665572 43.7658 -0.000109434 44.0805 -0.000109434C44.5552 -0.000109434 44.9632 0.149224 45.3045 0.447891C45.6512 0.741224 45.8245 1.14922 45.8245 1.67189C45.8245 2.01322 45.7445 2.30922 45.5845 2.55989C45.4245 2.80522 45.2112 2.99456 44.9445 3.12789C44.6832 3.26122 44.3952 3.32789 44.0805 3.32789ZM48.7836 3.32789C48.3143 3.32789 47.9036 3.17856 47.5516 2.87989C47.205 2.58122 47.0316 2.17856 47.0316 1.67189C47.0316 1.32522 47.1116 1.02656 47.2716 0.775891C47.4316 0.525224 47.645 0.333224 47.9116 0.19989C48.1783 0.0665572 48.469 -0.000109434 48.7836 -0.000109434C49.2583 -0.000109434 49.6663 0.149224 50.0076 0.447891C50.3543 0.741224 50.5276 1.14922 50.5276 1.67189C50.5276 2.01322 50.4476 2.30922 50.2876 2.55989C50.1276 2.80522 49.9143 2.99456 49.6476 3.12789C49.3863 3.26122 49.0983 3.32789 48.7836 3.32789ZM53.4868 3.32789C53.0174 3.32789 52.6068 3.17856 52.2548 2.87989C51.9081 2.58122 51.7348 2.17856 51.7348 1.67189C51.7348 1.32522 51.8148 1.02656 51.9748 0.775891C52.1348 0.525224 52.3481 0.333224 52.6148 0.19989C52.8814 0.0665572 53.1721 -0.000109434 53.4868 -0.000109434C53.9614 -0.000109434 54.3694 0.149224 54.7108 0.447891C55.0574 0.741224 55.2308 1.14922 55.2308 1.67189C55.2308 2.01322 55.1508 2.30922 54.9908 2.55989C54.8308 2.80522 54.6174 2.99456 54.3508 3.12789C54.0894 3.26122 53.8014 3.32789 53.4868 3.32789ZM58.1899 3.32789C57.7206 3.32789 57.3099 3.17856 56.9579 2.87989C56.6112 2.58122 56.4379 2.17856 56.4379 1.67189C56.4379 1.32522 56.5179 1.02656 56.6779 0.775891C56.8379 0.525224 57.0512 0.333224 57.3179 0.19989C57.5846 0.0665572 57.8752 -0.000109434 58.1899 -0.000109434C58.6646 -0.000109434 59.0726 0.149224 59.4139 0.447891C59.7606 0.741224 59.9339 1.14922 59.9339 1.67189C59.9339 2.01322 59.8539 2.30922 59.6939 2.55989C59.5339 2.80522 59.3206 2.99456 59.0539 3.12789C58.7926 3.26122 58.5046 3.32789 58.1899 3.32789ZM62.893 3.32789C62.4237 3.32789 62.013 3.17856 61.661 2.87989C61.3143 2.58122 61.141 2.17856 61.141 1.67189C61.141 1.32522 61.221 1.02656 61.381 0.775891C61.541 0.525224 61.7543 0.333224 62.021 0.19989C62.2877 0.0665572 62.5783 -0.000109434 62.893 -0.000109434C63.3677 -0.000109434 63.7757 0.149224 64.117 0.447891C64.4637 0.741224 64.637 1.14922 64.637 1.67189C64.637 2.01322 64.557 2.30922 64.397 2.55989C64.237 2.80522 64.0237 2.99456 63.757 3.12789C63.4957 3.26122 63.2077 3.32789 62.893 3.32789ZM67.5961 3.32789C67.1268 3.32789 66.7161 3.17856 66.3641 2.87989C66.0175 2.58122 65.8441 2.17856 65.8441 1.67189C65.8441 1.32522 65.9241 1.02656 66.0841 0.775891C66.2441 0.525224 66.4575 0.333224 66.7241 0.19989C66.9908 0.0665572 67.2815 -0.000109434 67.5961 -0.000109434C68.0708 -0.000109434 68.4788 0.149224 68.8201 0.447891C69.1668 0.741224 69.3401 1.14922 69.3401 1.67189C69.3401 2.01322 69.2601 2.30922 69.1001 2.55989C68.9401 2.80522 68.7268 2.99456 68.4601 3.12789C68.1988 3.26122 67.9108 3.32789 67.5961 3.32789ZM72.2993 3.32789C71.8299 3.32789 71.4193 3.17856 71.0673 2.87989C70.7206 2.58122 70.5473 2.17856 70.5473 1.67189C70.5473 1.32522 70.6273 1.02656 70.7873 0.775891C70.9473 0.525224 71.1606 0.333224 71.4273 0.19989C71.6939 0.0665572 71.9846 -0.000109434 72.2993 -0.000109434C72.7739 -0.000109434 73.1819 0.149224 73.5233 0.447891C73.8699 0.741224 74.0433 1.14922 74.0433 1.67189C74.0433 2.01322 73.9633 2.30922 73.8033 2.55989C73.6433 2.80522 73.4299 2.99456 73.1633 3.12789C72.9019 3.26122 72.6139 3.32789 72.2993 3.32789ZM77.0024 3.32789C76.5331 3.32789 76.1224 3.17856 75.7704 2.87989C75.4237 2.58122 75.2504 2.17856 75.2504 1.67189C75.2504 1.32522 75.3304 1.02656 75.4904 0.775891C75.6504 0.525224 75.8637 0.333224 76.1304 0.19989C76.3971 0.0665572 76.6877 -0.000109434 77.0024 -0.000109434C77.4771 -0.000109434 77.8851 0.149224 78.2264 0.447891C78.5731 0.741224 78.7464 1.14922 78.7464 1.67189C78.7464 2.01322 78.6664 2.30922 78.5064 2.55989C78.3464 2.80522 78.1331 2.99456 77.8664 3.12789C77.6051 3.26122 77.3171 3.32789 77.0024 3.32789ZM81.7055 3.32789C81.2362 3.32789 80.8255 3.17856 80.4735 2.87989C80.1268 2.58122 79.9535 2.17856 79.9535 1.67189C79.9535 1.32522 80.0335 1.02656 80.1935 0.775891C80.3535 0.525224 80.5668 0.333224 80.8335 0.19989C81.1002 0.0665572 81.3908 -0.000109434 81.7055 -0.000109434C82.1802 -0.000109434 82.5882 0.149224 82.9295 0.447891C83.2762 0.741224 83.4495 1.14922 83.4495 1.67189C83.4495 2.01322 83.3695 2.30922 83.2095 2.55989C83.0495 2.80522 82.8362 2.99456 82.5695 3.12789C82.3082 3.26122 82.0202 3.32789 81.7055 3.32789ZM86.4086 3.32789C85.9393 3.32789 85.5286 3.17856 85.1766 2.87989C84.83 2.58122 84.6566 2.17856 84.6566 1.67189C84.6566 1.32522 84.7366 1.02656 84.8966 0.775891C85.0566 0.525224 85.27 0.333224 85.5366 0.19989C85.8033 0.0665572 86.094 -0.000109434 86.4086 -0.000109434C86.8833 -0.000109434 87.2913 0.149224 87.6326 0.447891C87.9793 0.741224 88.1526 1.14922 88.1526 1.67189C88.1526 2.01322 88.0726 2.30922 87.9126 2.55989C87.7526 2.80522 87.5393 2.99456 87.2726 3.12789C87.0113 3.26122 86.7233 3.32789 86.4086 3.32789ZM91.1118 3.32789C90.6424 3.32789 90.2318 3.17856 89.8798 2.87989C89.5331 2.58122 89.3598 2.17856 89.3598 1.67189C89.3598 1.32522 89.4398 1.02656 89.5998 0.775891C89.7598 0.525224 89.9731 0.333224 90.2398 0.19989C90.5064 0.0665572 90.7971 -0.000109434 91.1118 -0.000109434C91.5864 -0.000109434 91.9944 0.149224 92.3358 0.447891C92.6824 0.741224 92.8558 1.14922 92.8558 1.67189C92.8558 2.01322 92.7758 2.30922 92.6158 2.55989C92.4558 2.80522 92.2424 2.99456 91.9758 3.12789C91.7144 3.26122 91.4264 3.32789 91.1118 3.32789ZM95.8149 3.32789C95.3456 3.32789 94.9349 3.17856 94.5829 2.87989C94.2362 2.58122 94.0629 2.17856 94.0629 1.67189C94.0629 1.32522 94.1429 1.02656 94.3029 0.775891C94.4629 0.525224 94.6762 0.333224 94.9429 0.19989C95.2096 0.0665572 95.5002 -0.000109434 95.8149 -0.000109434C96.2896 -0.000109434 96.6976 0.149224 97.0389 0.447891C97.3856 0.741224 97.5589 1.14922 97.5589 1.67189C97.5589 2.01322 97.4789 2.30922 97.3189 2.55989C97.1589 2.80522 96.9456 2.99456 96.6789 3.12789C96.4176 3.26122 96.1296 3.32789 95.8149 3.32789ZM100.518 3.32789C100.049 3.32789 99.638 3.17856 99.286 2.87989C98.9393 2.58122 98.766 2.17856 98.766 1.67189C98.766 1.32522 98.846 1.02656 99.006 0.775891C99.166 0.525224 99.3793 0.333224 99.646 0.19989C99.9127 0.0665572 100.203 -0.000109434 100.518 -0.000109434C100.993 -0.000109434 101.401 0.149224 101.742 0.447891C102.089 0.741224 102.262 1.14922 102.262 1.67189C102.262 2.01322 102.182 2.30922 102.022 2.55989C101.862 2.80522 101.649 2.99456 101.382 3.12789C101.121 3.26122 100.833 3.32789 100.518 3.32789ZM105.221 3.32789C104.752 3.32789 104.341 3.17856 103.989 2.87989C103.642 2.58122 103.469 2.17856 103.469 1.67189C103.469 1.32522 103.549 1.02656 103.709 0.775891C103.869 0.525224 104.082 0.333224 104.349 0.19989C104.616 0.0665572 104.906 -0.000109434 105.221 -0.000109434C105.696 -0.000109434 106.104 0.149224 106.445 0.447891C106.792 0.741224 106.965 1.14922 106.965 1.67189C106.965 2.01322 106.885 2.30922 106.725 2.55989C106.565 2.80522 106.352 2.99456 106.085 3.12789C105.824 3.26122 105.536 3.32789 105.221 3.32789ZM109.924 3.32789C109.455 3.32789 109.044 3.17856 108.692 2.87989C108.346 2.58122 108.172 2.17856 108.172 1.67189C108.172 1.32522 108.252 1.02656 108.412 0.775891C108.572 0.525224 108.786 0.333224 109.052 0.19989C109.319 0.0665572 109.61 -0.000109434 109.924 -0.000109434C110.399 -0.000109434 110.807 0.149224 111.148 0.447891C111.495 0.741224 111.668 1.14922 111.668 1.67189C111.668 2.01322 111.588 2.30922 111.428 2.55989C111.268 2.80522 111.055 2.99456 110.788 3.12789C110.527 3.26122 110.239 3.32789 109.924 3.32789ZM114.627 3.32789C114.158 3.32789 113.747 3.17856 113.395 2.87989C113.049 2.58122 112.875 2.17856 112.875 1.67189C112.875 1.32522 112.955 1.02656 113.115 0.775891C113.275 0.525224 113.489 0.333224 113.755 0.19989C114.022 0.0665572 114.313 -0.000109434 114.627 -0.000109434C115.102 -0.000109434 115.51 0.149224 115.851 0.447891C116.198 0.741224 116.371 1.14922 116.371 1.67189C116.371 2.01322 116.291 2.30922 116.131 2.55989C115.971 2.80522 115.758 2.99456 115.491 3.12789C115.23 3.26122 114.942 3.32789 114.627 3.32789ZM119.331 3.32789C118.861 3.32789 118.451 3.17856 118.099 2.87989C117.752 2.58122 117.579 2.17856 117.579 1.67189C117.579 1.32522 117.659 1.02656 117.819 0.775891C117.979 0.525224 118.192 0.333224 118.459 0.19989C118.725 0.0665572 119.016 -0.000109434 119.331 -0.000109434C119.805 -0.000109434 120.213 0.149224 120.555 0.447891C120.901 0.741224 121.075 1.14922 121.075 1.67189C121.075 2.01322 120.995 2.30922 120.835 2.55989C120.675 2.80522 120.461 2.99456 120.195 3.12789C119.933 3.26122 119.645 3.32789 119.331 3.32789ZM124.034 3.32789C123.564 3.32789 123.154 3.17856 122.802 2.87989C122.455 2.58122 122.282 2.17856 122.282 1.67189C122.282 1.32522 122.362 1.02656 122.522 0.775891C122.682 0.525224 122.895 0.333224 123.162 0.19989C123.428 0.0665572 123.719 -0.000109434 124.034 -0.000109434C124.508 -0.000109434 124.916 0.149224 125.258 0.447891C125.604 0.741224 125.778 1.14922 125.778 1.67189C125.778 2.01322 125.698 2.30922 125.538 2.55989C125.378 2.80522 125.164 2.99456 124.898 3.12789C124.636 3.26122 124.348 3.32789 124.034 3.32789ZM128.737 3.32789C128.267 3.32789 127.857 3.17856 127.505 2.87989C127.158 2.58122 126.985 2.17856 126.985 1.67189C126.985 1.32522 127.065 1.02656 127.225 0.775891C127.385 0.525224 127.598 0.333224 127.865 0.19989C128.131 0.0665572 128.422 -0.000109434 128.737 -0.000109434C129.211 -0.000109434 129.619 0.149224 129.961 0.447891C130.307 0.741224 130.481 1.14922 130.481 1.67189C130.481 2.01322 130.401 2.30922 130.241 2.55989C130.081 2.80522 129.867 2.99456 129.601 3.12789C129.339 3.26122 129.051 3.32789 128.737 3.32789ZM133.44 3.32789C132.971 3.32789 132.56 3.17856 132.208 2.87989C131.861 2.58122 131.688 2.17856 131.688 1.67189C131.688 1.32522 131.768 1.02656 131.928 0.775891C132.088 0.525224 132.301 0.333224 132.568 0.19989C132.835 0.0665572 133.125 -0.000109434 133.44 -0.000109434C133.915 -0.000109434 134.323 0.149224 134.664 0.447891C135.011 0.741224 135.184 1.14922 135.184 1.67189C135.184 2.01322 135.104 2.30922 134.944 2.55989C134.784 2.80522 134.571 2.99456 134.304 3.12789C134.043 3.26122 133.755 3.32789 133.44 3.32789ZM138.143 3.32789C137.674 3.32789 137.263 3.17856 136.911 2.87989C136.564 2.58122 136.391 2.17856 136.391 1.67189C136.391 1.32522 136.471 1.02656 136.631 0.775891C136.791 0.525224 137.004 0.333224 137.271 0.19989C137.538 0.0665572 137.828 -0.000109434 138.143 -0.000109434C138.618 -0.000109434 139.026 0.149224 139.367 0.447891C139.714 0.741224 139.887 1.14922 139.887 1.67189C139.887 2.01322 139.807 2.30922 139.647 2.55989C139.487 2.80522 139.274 2.99456 139.007 3.12789C138.746 3.26122 138.458 3.32789 138.143 3.32789ZM142.846 3.32789C142.377 3.32789 141.966 3.17856 141.614 2.87989C141.267 2.58122 141.094 2.17856 141.094 1.67189C141.094 1.32522 141.174 1.02656 141.334 0.775891C141.494 0.525224 141.707 0.333224 141.974 0.19989C142.241 0.0665572 142.531 -0.000109434 142.846 -0.000109434C143.321 -0.000109434 143.729 0.149224 144.07 0.447891C144.417 0.741224 144.59 1.14922 144.59 1.67189C144.59 2.01322 144.51 2.30922 144.35 2.55989C144.19 2.80522 143.977 2.99456 143.71 3.12789C143.449 3.26122 143.161 3.32789 142.846 3.32789ZM147.549 3.32789C147.08 3.32789 146.669 3.17856 146.317 2.87989C145.971 2.58122 145.797 2.17856 145.797 1.67189C145.797 1.32522 145.877 1.02656 146.037 0.775891C146.197 0.525224 146.411 0.333224 146.677 0.19989C146.944 0.0665572 147.235 -0.000109434 147.549 -0.000109434C148.024 -0.000109434 148.432 0.149224 148.773 0.447891C149.12 0.741224 149.293 1.14922 149.293 1.67189C149.293 2.01322 149.213 2.30922 149.053 2.55989C148.893 2.80522 148.68 2.99456 148.413 3.12789C148.152 3.26122 147.864 3.32789 147.549 3.32789ZM152.252 3.32789C151.783 3.32789 151.372 3.17856 151.02 2.87989C150.674 2.58122 150.5 2.17856 150.5 1.67189C150.5 1.32522 150.58 1.02656 150.74 0.775891C150.9 0.525224 151.114 0.333224 151.38 0.19989C151.647 0.0665572 151.938 -0.000109434 152.252 -0.000109434C152.727 -0.000109434 153.135 0.149224 153.476 0.447891C153.823 0.741224 153.996 1.14922 153.996 1.67189C153.996 2.01322 153.916 2.30922 153.756 2.55989C153.596 2.80522 153.383 2.99456 153.116 3.12789C152.855 3.26122 152.567 3.32789 152.252 3.32789ZM156.956 3.32789C156.486 3.32789 156.076 3.17856 155.724 2.87989C155.377 2.58122 155.204 2.17856 155.204 1.67189C155.204 1.32522 155.284 1.02656 155.444 0.775891C155.604 0.525224 155.817 0.333224 156.084 0.19989C156.35 0.0665572 156.641 -0.000109434 156.956 -0.000109434C157.43 -0.000109434 157.838 0.149224 158.18 0.447891C158.526 0.741224 158.7 1.14922 158.7 1.67189C158.7 2.01322 158.62 2.30922 158.46 2.55989C158.3 2.80522 158.086 2.99456 157.82 3.12789C157.558 3.26122 157.27 3.32789 156.956 3.32789ZM161.659 3.32789C161.189 3.32789 160.779 3.17856 160.427 2.87989C160.08 2.58122 159.907 2.17856 159.907 1.67189C159.907 1.32522 159.987 1.02656 160.147 0.775891C160.307 0.525224 160.52 0.333224 160.787 0.19989C161.053 0.0665572 161.344 -0.000109434 161.659 -0.000109434C162.133 -0.000109434 162.541 0.149224 162.883 0.447891C163.229 0.741224 163.403 1.14922 163.403 1.67189C163.403 2.01322 163.323 2.30922 163.163 2.55989C163.003 2.80522 162.789 2.99456 162.523 3.12789C162.261 3.26122 161.973 3.32789 161.659 3.32789ZM166.362 3.32789C165.892 3.32789 165.482 3.17856 165.13 2.87989C164.783 2.58122 164.61 2.17856 164.61 1.67189C164.61 1.32522 164.69 1.02656 164.85 0.775891C165.01 0.525224 165.223 0.333224 165.49 0.19989C165.756 0.0665572 166.047 -0.000109434 166.362 -0.000109434C166.836 -0.000109434 167.244 0.149224 167.586 0.447891C167.932 0.741224 168.106 1.14922 168.106 1.67189C168.106 2.01322 168.026 2.30922 167.866 2.55989C167.706 2.80522 167.492 2.99456 167.226 3.12789C166.964 3.26122 166.676 3.32789 166.362 3.32789ZM171.065 3.32789C170.596 3.32789 170.185 3.17856 169.833 2.87989C169.486 2.58122 169.313 2.17856 169.313 1.67189C169.313 1.32522 169.393 1.02656 169.553 0.775891C169.713 0.525224 169.926 0.333224 170.193 0.19989C170.46 0.0665572 170.75 -0.000109434 171.065 -0.000109434C171.54 -0.000109434 171.948 0.149224 172.289 0.447891C172.636 0.741224 172.809 1.14922 172.809 1.67189C172.809 2.01322 172.729 2.30922 172.569 2.55989C172.409 2.80522 172.196 2.99456 171.929 3.12789C171.668 3.26122 171.38 3.32789 171.065 3.32789ZM175.768 3.32789C175.299 3.32789 174.888 3.17856 174.536 2.87989C174.189 2.58122 174.016 2.17856 174.016 1.67189C174.016 1.32522 174.096 1.02656 174.256 0.775891C174.416 0.525224 174.629 0.333224 174.896 0.19989C175.163 0.0665572 175.453 -0.000109434 175.768 -0.000109434C176.243 -0.000109434 176.651 0.149224 176.992 0.447891C177.339 0.741224 177.512 1.14922 177.512 1.67189C177.512 2.01322 177.432 2.30922 177.272 2.55989C177.112 2.80522 176.899 2.99456 176.632 3.12789C176.371 3.26122 176.083 3.32789 175.768 3.32789ZM180.471 3.32789C180.002 3.32789 179.591 3.17856 179.239 2.87989C178.892 2.58122 178.719 2.17856 178.719 1.67189C178.719 1.32522 178.799 1.02656 178.959 0.775891C179.119 0.525224 179.332 0.333224 179.599 0.19989C179.866 0.0665572 180.156 -0.000109434 180.471 -0.000109434C180.946 -0.000109434 181.354 0.149224 181.695 0.447891C182.042 0.741224 182.215 1.14922 182.215 1.67189C182.215 2.01322 182.135 2.30922 181.975 2.55989C181.815 2.80522 181.602 2.99456 181.335 3.12789C181.074 3.26122 180.786 3.32789 180.471 3.32789ZM185.174 3.32789C184.705 3.32789 184.294 3.17856 183.942 2.87989C183.596 2.58122 183.422 2.17856 183.422 1.67189C183.422 1.32522 183.502 1.02656 183.662 0.775891C183.822 0.525224 184.036 0.333224 184.302 0.19989C184.569 0.0665572 184.86 -0.000109434 185.174 -0.000109434C185.649 -0.000109434 186.057 0.149224 186.398 0.447891C186.745 0.741224 186.918 1.14922 186.918 1.67189C186.918 2.01322 186.838 2.30922 186.678 2.55989C186.518 2.80522 186.305 2.99456 186.038 3.12789C185.777 3.26122 185.489 3.32789 185.174 3.32789ZM189.877 3.32789C189.408 3.32789 188.997 3.17856 188.645 2.87989C188.299 2.58122 188.125 2.17856 188.125 1.67189C188.125 1.32522 188.205 1.02656 188.365 0.775891C188.525 0.525224 188.739 0.333224 189.005 0.19989C189.272 0.0665572 189.563 -0.000109434 189.877 -0.000109434C190.352 -0.000109434 190.76 0.149224 191.101 0.447891C191.448 0.741224 191.621 1.14922 191.621 1.67189C191.621 2.01322 191.541 2.30922 191.381 2.55989C191.221 2.80522 191.008 2.99456 190.741 3.12789C190.48 3.26122 190.192 3.32789 189.877 3.32789ZM194.581 3.32789C194.111 3.32789 193.701 3.17856 193.349 2.87989C193.002 2.58122 192.829 2.17856 192.829 1.67189C192.829 1.32522 192.909 1.02656 193.069 0.775891C193.229 0.525224 193.442 0.333224 193.709 0.19989C193.975 0.0665572 194.266 -0.000109434 194.581 -0.000109434C195.055 -0.000109434 195.463 0.149224 195.805 0.447891C196.151 0.741224 196.325 1.14922 196.325 1.67189C196.325 2.01322 196.245 2.30922 196.085 2.55989C195.925 2.80522 195.711 2.99456 195.445 3.12789C195.183 3.26122 194.895 3.32789 194.581 3.32789ZM199.284 3.32789C198.814 3.32789 198.404 3.17856 198.052 2.87989C197.705 2.58122 197.532 2.17856 197.532 1.67189C197.532 1.32522 197.612 1.02656 197.772 0.775891C197.932 0.525224 198.145 0.333224 198.412 0.19989C198.678 0.0665572 198.969 -0.000109434 199.284 -0.000109434C199.758 -0.000109434 200.166 0.149224 200.508 0.447891C200.854 0.741224 201.028 1.14922 201.028 1.67189C201.028 2.01322 200.948 2.30922 200.788 2.55989C200.628 2.80522 200.414 2.99456 200.148 3.12789C199.886 3.26122 199.598 3.32789 199.284 3.32789ZM203.987 3.32789C203.517 3.32789 203.107 3.17856 202.755 2.87989C202.408 2.58122 202.235 2.17856 202.235 1.67189C202.235 1.32522 202.315 1.02656 202.475 0.775891C202.635 0.525224 202.848 0.333224 203.115 0.19989C203.381 0.0665572 203.672 -0.000109434 203.987 -0.000109434C204.461 -0.000109434 204.869 0.149224 205.211 0.447891C205.557 0.741224 205.731 1.14922 205.731 1.67189C205.731 2.01322 205.651 2.30922 205.491 2.55989C205.331 2.80522 205.117 2.99456 204.851 3.12789C204.589 3.26122 204.301 3.32789 203.987 3.32789ZM208.69 3.32789C208.221 3.32789 207.81 3.17856 207.458 2.87989C207.111 2.58122 206.938 2.17856 206.938 1.67189C206.938 1.32522 207.018 1.02656 207.178 0.775891C207.338 0.525224 207.551 0.333224 207.818 0.19989C208.085 0.0665572 208.375 -0.000109434 208.69 -0.000109434C209.165 -0.000109434 209.573 0.149224 209.914 0.447891C210.261 0.741224 210.434 1.14922 210.434 1.67189C210.434 2.01322 210.354 2.30922 210.194 2.55989C210.034 2.80522 209.821 2.99456 209.554 3.12789C209.293 3.26122 209.005 3.32789 208.69 3.32789ZM213.393 3.32789C212.924 3.32789 212.513 3.17856 212.161 2.87989C211.814 2.58122 211.641 2.17856 211.641 1.67189C211.641 1.32522 211.721 1.02656 211.881 0.775891C212.041 0.525224 212.254 0.333224 212.521 0.19989C212.788 0.0665572 213.078 -0.000109434 213.393 -0.000109434C213.868 -0.000109434 214.276 0.149224 214.617 0.447891C214.964 0.741224 215.137 1.14922 215.137 1.67189C215.137 2.01322 215.057 2.30922 214.897 2.55989C214.737 2.80522 214.524 2.99456 214.257 3.12789C213.996 3.26122 213.708 3.32789 213.393 3.32789ZM218.096 3.32789C217.627 3.32789 217.216 3.17856 216.864 2.87989C216.517 2.58122 216.344 2.17856 216.344 1.67189C216.344 1.32522 216.424 1.02656 216.584 0.775891C216.744 0.525224 216.957 0.333224 217.224 0.19989C217.491 0.0665572 217.781 -0.000109434 218.096 -0.000109434C218.571 -0.000109434 218.979 0.149224 219.32 0.447891C219.667 0.741224 219.84 1.14922 219.84 1.67189C219.84 2.01322 219.76 2.30922 219.6 2.55989C219.44 2.80522 219.227 2.99456 218.96 3.12789C218.699 3.26122 218.411 3.32789 218.096 3.32789ZM222.799 3.32789C222.33 3.32789 221.919 3.17856 221.567 2.87989C221.221 2.58122 221.047 2.17856 221.047 1.67189C221.047 1.32522 221.127 1.02656 221.287 0.775891C221.447 0.525224 221.661 0.333224 221.927 0.19989C222.194 0.0665572 222.485 -0.000109434 222.799 -0.000109434C223.274 -0.000109434 223.682 0.149224 224.023 0.447891C224.37 0.741224 224.543 1.14922 224.543 1.67189C224.543 2.01322 224.463 2.30922 224.303 2.55989C224.143 2.80522 223.93 2.99456 223.663 3.12789C223.402 3.26122 223.114 3.32789 222.799 3.32789ZM227.502 3.32789C227.033 3.32789 226.622 3.17856 226.27 2.87989C225.924 2.58122 225.75 2.17856 225.75 1.67189C225.75 1.32522 225.83 1.02656 225.99 0.775891C226.15 0.525224 226.364 0.333224 226.63 0.19989C226.897 0.0665572 227.188 -0.000109434 227.502 -0.000109434C227.977 -0.000109434 228.385 0.149224 228.726 0.447891C229.073 0.741224 229.246 1.14922 229.246 1.67189C229.246 2.01322 229.166 2.30922 229.006 2.55989C228.846 2.80522 228.633 2.99456 228.366 3.12789C228.105 3.26122 227.817 3.32789 227.502 3.32789ZM232.206 3.32789C231.736 3.32789 231.326 3.17856 230.974 2.87989C230.627 2.58122 230.454 2.17856 230.454 1.67189C230.454 1.32522 230.534 1.02656 230.694 0.775891C230.854 0.525224 231.067 0.333224 231.334 0.19989C231.6 0.0665572 231.891 -0.000109434 232.206 -0.000109434C232.68 -0.000109434 233.088 0.149224 233.43 0.447891C233.776 0.741224 233.95 1.14922 233.95 1.67189C233.95 2.01322 233.87 2.30922 233.71 2.55989C233.55 2.80522 233.336 2.99456 233.07 3.12789C232.808 3.26122 232.52 3.32789 232.206 3.32789ZM236.909 3.32789C236.439 3.32789 236.029 3.17856 235.677 2.87989C235.33 2.58122 235.157 2.17856 235.157 1.67189C235.157 1.32522 235.237 1.02656 235.397 0.775891C235.557 0.525224 235.77 0.333224 236.037 0.19989C236.303 0.0665572 236.594 -0.000109434 236.909 -0.000109434C237.383 -0.000109434 237.791 0.149224 238.133 0.447891C238.479 0.741224 238.653 1.14922 238.653 1.67189C238.653 2.01322 238.573 2.30922 238.413 2.55989C238.253 2.80522 238.039 2.99456 237.773 3.12789C237.511 3.26122 237.223 3.32789 236.909 3.32789ZM241.612 3.32789C241.142 3.32789 240.732 3.17856 240.38 2.87989C240.033 2.58122 239.86 2.17856 239.86 1.67189C239.86 1.32522 239.94 1.02656 240.1 0.775891C240.26 0.525224 240.473 0.333224 240.74 0.19989C241.006 0.0665572 241.297 -0.000109434 241.612 -0.000109434C242.086 -0.000109434 242.494 0.149224 242.836 0.447891C243.182 0.741224 243.356 1.14922 243.356 1.67189C243.356 2.01322 243.276 2.30922 243.116 2.55989C242.956 2.80522 242.742 2.99456 242.476 3.12789C242.214 3.26122 241.926 3.32789 241.612 3.32789ZM246.315 3.32789C245.846 3.32789 245.435 3.17856 245.083 2.87989C244.736 2.58122 244.563 2.17856 244.563 1.67189C244.563 1.32522 244.643 1.02656 244.803 0.775891C244.963 0.525224 245.176 0.333224 245.443 0.19989C245.71 0.0665572 246 -0.000109434 246.315 -0.000109434C246.79 -0.000109434 247.198 0.149224 247.539 0.447891C247.886 0.741224 248.059 1.14922 248.059 1.67189C248.059 2.01322 247.979 2.30922 247.819 2.55989C247.659 2.80522 247.446 2.99456 247.179 3.12789C246.918 3.26122 246.63 3.32789 246.315 3.32789ZM251.018 3.32789C250.549 3.32789 250.138 3.17856 249.786 2.87989C249.439 2.58122 249.266 2.17856 249.266 1.67189C249.266 1.32522 249.346 1.02656 249.506 0.775891C249.666 0.525224 249.879 0.333224 250.146 0.19989C250.413 0.0665572 250.703 -0.000109434 251.018 -0.000109434C251.493 -0.000109434 251.901 0.149224 252.242 0.447891C252.589 0.741224 252.762 1.14922 252.762 1.67189C252.762 2.01322 252.682 2.30922 252.522 2.55989C252.362 2.80522 252.149 2.99456 251.882 3.12789C251.621 3.26122 251.333 3.32789 251.018 3.32789ZM255.721 3.32789C255.252 3.32789 254.841 3.17856 254.489 2.87989C254.142 2.58122 253.969 2.17856 253.969 1.67189C253.969 1.32522 254.049 1.02656 254.209 0.775891C254.369 0.525224 254.582 0.333224 254.849 0.19989C255.116 0.0665572 255.406 -0.000109434 255.721 -0.000109434C256.196 -0.000109434 256.604 0.149224 256.945 0.447891C257.292 0.741224 257.465 1.14922 257.465 1.67189C257.465 2.01322 257.385 2.30922 257.225 2.55989C257.065 2.80522 256.852 2.99456 256.585 3.12789C256.324 3.26122 256.036 3.32789 255.721 3.32789ZM260.424 3.32789C259.955 3.32789 259.544 3.17856 259.192 2.87989C258.846 2.58122 258.672 2.17856 258.672 1.67189C258.672 1.32522 258.752 1.02656 258.912 0.775891C259.072 0.525224 259.286 0.333224 259.552 0.19989C259.819 0.0665572 260.11 -0.000109434 260.424 -0.000109434C260.899 -0.000109434 261.307 0.149224 261.648 0.447891C261.995 0.741224 262.168 1.14922 262.168 1.67189C262.168 2.01322 262.088 2.30922 261.928 2.55989C261.768 2.80522 261.555 2.99456 261.288 3.12789C261.027 3.26122 260.739 3.32789 260.424 3.32789ZM265.127 3.32789C264.658 3.32789 264.247 3.17856 263.895 2.87989C263.549 2.58122 263.375 2.17856 263.375 1.67189C263.375 1.32522 263.455 1.02656 263.615 0.775891C263.775 0.525224 263.989 0.333224 264.255 0.19989C264.522 0.0665572 264.813 -0.000109434 265.127 -0.000109434C265.602 -0.000109434 266.01 0.149224 266.351 0.447891C266.698 0.741224 266.871 1.14922 266.871 1.67189C266.871 2.01322 266.791 2.30922 266.631 2.55989C266.471 2.80522 266.258 2.99456 265.991 3.12789C265.73 3.26122 265.442 3.32789 265.127 3.32789ZM269.831 3.32789C269.361 3.32789 268.951 3.17856 268.599 2.87989C268.252 2.58122 268.079 2.17856 268.079 1.67189C268.079 1.32522 268.159 1.02656 268.319 0.775891C268.479 0.525224 268.692 0.333224 268.959 0.19989C269.225 0.0665572 269.516 -0.000109434 269.831 -0.000109434C270.305 -0.000109434 270.713 0.149224 271.055 0.447891C271.401 0.741224 271.575 1.14922 271.575 1.67189C271.575 2.01322 271.495 2.30922 271.335 2.55989C271.175 2.80522 270.961 2.99456 270.695 3.12789C270.433 3.26122 270.145 3.32789 269.831 3.32789ZM274.534 3.32789C274.064 3.32789 273.654 3.17856 273.302 2.87989C272.955 2.58122 272.782 2.17856 272.782 1.67189C272.782 1.32522 272.862 1.02656 273.022 0.775891C273.182 0.525224 273.395 0.333224 273.662 0.19989C273.928 0.0665572 274.219 -0.000109434 274.534 -0.000109434C275.008 -0.000109434 275.416 0.149224 275.758 0.447891C276.104 0.741224 276.278 1.14922 276.278 1.67189C276.278 2.01322 276.198 2.30922 276.038 2.55989C275.878 2.80522 275.664 2.99456 275.398 3.12789C275.136 3.26122 274.848 3.32789 274.534 3.32789ZM279.237 3.32789C278.767 3.32789 278.357 3.17856 278.005 2.87989C277.658 2.58122 277.485 2.17856 277.485 1.67189C277.485 1.32522 277.565 1.02656 277.725 0.775891C277.885 0.525224 278.098 0.333224 278.365 0.19989C278.631 0.0665572 278.922 -0.000109434 279.237 -0.000109434C279.711 -0.000109434 280.119 0.149224 280.461 0.447891C280.807 0.741224 280.981 1.14922 280.981 1.67189C280.981 2.01322 280.901 2.30922 280.741 2.55989C280.581 2.80522 280.367 2.99456 280.101 3.12789C279.839 3.26122 279.551 3.32789 279.237 3.32789ZM283.94 3.32789C283.471 3.32789 283.06 3.17856 282.708 2.87989C282.361 2.58122 282.188 2.17856 282.188 1.67189C282.188 1.32522 282.268 1.02656 282.428 0.775891C282.588 0.525224 282.801 0.333224 283.068 0.19989C283.335 0.0665572 283.625 -0.000109434 283.94 -0.000109434C284.415 -0.000109434 284.823 0.149224 285.164 0.447891C285.511 0.741224 285.684 1.14922 285.684 1.67189C285.684 2.01322 285.604 2.30922 285.444 2.55989C285.284 2.80522 285.071 2.99456 284.804 3.12789C284.543 3.26122 284.255 3.32789 283.94 3.32789ZM288.643 3.32789C288.174 3.32789 287.763 3.17856 287.411 2.87989C287.064 2.58122 286.891 2.17856 286.891 1.67189C286.891 1.32522 286.971 1.02656 287.131 0.775891C287.291 0.525224 287.504 0.333224 287.771 0.19989C288.038 0.0665572 288.328 -0.000109434 288.643 -0.000109434C289.118 -0.000109434 289.526 0.149224 289.867 0.447891C290.214 0.741224 290.387 1.14922 290.387 1.67189C290.387 2.01322 290.307 2.30922 290.147 2.55989C289.987 2.80522 289.774 2.99456 289.507 3.12789C289.246 3.26122 288.958 3.32789 288.643 3.32789Z" fill="#F1EAE2"/>
</svg>
